<?xml version="1.0" encoding="UTF-8"?>
<!DOCTYPE svg PUBLIC "-//W3C//DTD SVG 1.1//EN" "http://www.w3.org/Graphics/SVG/1.1/DTD/svg11.dtd">
<svg xmlns="http://www.w3.org/2000/svg" version="1.1" width="650px" height="395px" style="shape-rendering:geometricPrecision; text-rendering:geometricPrecision; image-rendering:optimizeQuality; fill-rule:evenodd; clip-rule:evenodd" xmlns:xlink="http://www.w3.org/1999/xlink">
<g><path style="opacity:1" fill="#fefefd" d="M -0.5,-0.5 C 216.167,-0.5 432.833,-0.5 649.5,-0.5C 649.5,131.167 649.5,262.833 649.5,394.5C 432.833,394.5 216.167,394.5 -0.5,394.5C -0.5,262.833 -0.5,131.167 -0.5,-0.5 Z"/></g>
<g><path style="opacity:1" fill="#f8fef8" d="M 624.5,81.5 C 624.167,81.5 623.833,81.5 623.5,81.5C 422.334,80.6668 221,80.1668 19.5,80C 120.333,79.8333 221.167,79.6667 322,79.5C 423.169,79.5 524.002,80.1667 624.5,81.5 Z"/></g>
<g><path style="opacity:1" fill="#d9e9f3" d="M 623.5,81.5 C 623.833,81.5 624.167,81.5 624.5,81.5C 626.179,81.2852 627.179,81.9519 627.5,83.5C 425.5,83.5 223.5,83.5 21.5,83.5C 21.1667,83.5 20.8333,83.5 20.5,83.5C 221.164,81.5011 422.164,80.8344 623.5,81.5 Z"/></g>
<g><path style="opacity:1" fill="#4b98ba" d="M 21.5,83.5 C 223.5,83.5 425.5,83.5 627.5,83.5C 628.665,132.665 628.832,181.998 628,231.5C 627.817,234.365 627.317,237.031 626.5,239.5C 626.5,235.167 626.5,230.833 626.5,226.5C 626.5,179.167 626.5,131.833 626.5,84.5C 425.5,84.3333 224.5,84.5 23.5,85C 22.944,85.3826 22.6107,85.8826 22.5,86.5C 22.1667,86.5 21.8333,86.5 21.5,86.5C 21.5,85.5 21.5,84.5 21.5,83.5 Z"/></g>
<g><path style="opacity:1" fill="#0280ae" d="M 626.5,226.5 C 624.831,180.273 623.831,133.773 623.5,87C 423.5,86.5 223.5,86.3333 23.5,86.5C 23.1667,86.5 22.8333,86.5 22.5,86.5C 22.6107,85.8826 22.944,85.3826 23.5,85C 224.5,84.5 425.5,84.3333 626.5,84.5C 626.5,131.833 626.5,179.167 626.5,226.5 Z"/></g>
<g><path style="opacity:1" fill="#0581ab" d="M 23.5,86.5 C 223.5,86.3333 423.5,86.5 623.5,87C 623.831,133.773 624.831,180.273 626.5,226.5C 626.5,230.833 626.5,235.167 626.5,239.5C 621.066,272.433 603.066,295.6 572.5,309C 564.763,311.968 556.763,313.801 548.5,314.5C 546.833,314.5 545.167,314.5 543.5,314.5C 457.003,313.167 370.169,312.5 283,312.5C 195.764,312.501 108.597,312.835 21.5,313.5C 21.5,238.167 21.5,162.833 21.5,87.5C 22.333,161.999 22.833,236.666 23,311.5C 23.5,236.501 23.6667,161.501 23.5,86.5 Z"/></g>
<g><path style="opacity:1" fill="#f5fefb" d="M 20.5,83.5 C 20.5,160.833 20.5,238.167 20.5,315.5C 19.0222,315.762 17.6888,315.429 16.5,314.5C 16.1772,238.949 16.5105,163.282 17.5,87.5C 18.3333,162.164 18.8333,236.831 19,311.5C 19.167,235.332 19.667,159.332 20.5,83.5 Z"/></g>
<g><path style="opacity:1" fill="#007baf" d="M 21.5,87.5 C 21.5,87.1667 21.5,86.8333 21.5,86.5C 21.8333,86.5 22.1667,86.5 22.5,86.5C 22.8333,86.5 23.1667,86.5 23.5,86.5C 23.6667,161.501 23.5,236.501 23,311.5C 22.833,236.666 22.333,161.999 21.5,87.5 Z"/></g>
<g><path style="opacity:1" fill="#fbfbfa" d="M 567.5,115.5 C 570.505,117.277 573.838,118.277 577.5,118.5C 578.209,119.404 579.209,119.737 580.5,119.5C 582.466,120.834 584.466,122.168 586.5,123.5C 589.768,124.487 593.102,124.82 596.5,124.5C 596.79,162.849 596.457,201.182 595.5,239.5C 589.669,262.943 575.002,277.777 551.5,284C 520.59,288.934 498.423,277.434 485,249.5C 484.057,246.176 483.224,242.843 482.5,239.5C 481.55,201.18 481.217,162.847 481.5,124.5C 484.01,124.946 486.01,124.28 487.5,122.5C 490.637,120.129 494.304,119.129 498.5,119.5C 502.222,118.983 505.888,118.15 509.5,117C 510.056,116.617 510.389,116.117 510.5,115.5C 519.849,111.802 529.183,108.136 538.5,104.5C 548,108.775 557.667,112.442 567.5,115.5 Z"/></g>
<g><path style="opacity:1" fill="#7cb4ca" d="M 567.5,115.5 C 571.162,115.723 574.495,116.723 577.5,118.5C 573.838,118.277 570.505,117.277 567.5,115.5 Z"/></g>
<g><path style="opacity:1" fill="#e3eff4" d="M 122.5,114.5 C 127.123,113.408 128.956,115.075 128,119.5C 122.42,121.752 120.587,120.085 122.5,114.5 Z"/></g>
<g><path style="opacity:1" fill="#e6f0f4" d="M 111.5,114.5 C 113.527,114.338 115.527,114.505 117.5,115C 118.891,119.655 117.224,121.155 112.5,119.5C 111.548,117.955 111.215,116.288 111.5,114.5 Z"/></g>
<g><path style="opacity:1" fill="#bbdae6" d="M 510.5,115.5 C 510.389,116.117 510.056,116.617 509.5,117C 505.888,118.15 502.222,118.983 498.5,119.5C 502.114,117.299 506.114,115.966 510.5,115.5 Z"/></g>
<g><path style="opacity:1" fill="#57a4be" d="M 215.5,129.5 C 210.175,128.239 204.842,128.239 199.5,129.5C 201.807,127.953 204.473,127.287 207.5,127.5C 210.527,127.287 213.193,127.953 215.5,129.5 Z"/></g>
<g><path style="opacity:1" fill="#77b3d3" d="M 334.5,118.5 C 331.167,118.5 327.833,118.5 324.5,118.5C 324.5,119.5 324.5,120.5 324.5,121.5C 325.5,121.5 326.5,121.5 327.5,121.5C 327.5,132.5 327.5,143.5 327.5,154.5C 326.506,144.013 326.172,133.346 326.5,122.5C 325.5,122.5 324.5,122.5 323.5,122.5C 323.5,120.833 323.5,119.167 323.5,117.5C 327.371,117.185 331.038,117.518 334.5,118.5 Z"/></g>
<g><path style="opacity:1" fill="#a7cddc" d="M 435.5,129.5 C 428.158,128.276 420.824,128.276 413.5,129.5C 413.918,128.778 414.584,128.278 415.5,128C 421.5,127.333 427.5,127.333 433.5,128C 434.416,128.278 435.082,128.778 435.5,129.5 Z"/></g>
<g><path style="opacity:1" fill="#bfdcf0" d="M 487.5,122.5 C 486.01,124.28 484.01,124.946 481.5,124.5C 481.217,162.847 481.55,201.18 482.5,239.5C 481.778,239.082 481.278,238.416 481,237.5C 480.5,199.501 480.333,161.501 480.5,123.5C 482.806,123.007 485.139,122.674 487.5,122.5 Z"/></g>
<g><path style="opacity:1" fill="#e8eff5" d="M 127.5,128.5 C 128.833,128.5 130.167,128.5 131.5,128.5C 131.5,134.833 131.5,141.167 131.5,147.5C 130.833,141.986 130.167,136.319 129.5,130.5C 128.58,134.843 128.58,139.343 129.5,144C 129,144.5 128.5,145 128,145.5C 127.667,140.833 127.333,136.167 127,131.5C 126.828,137.681 126.328,143.681 125.5,149.5C 124.491,150.939 124.824,152.272 126.5,153.5C 150.824,154.5 175.158,154.833 199.5,154.5C 199.5,154.833 199.5,155.167 199.5,155.5C 174.833,155.5 150.167,155.5 125.5,155.5C 125.5,155.167 125.5,154.833 125.5,154.5C 123.565,153.291 121.565,153.458 119.5,155C 113.772,156.441 108.772,155.274 104.5,151.5C 102.848,146.659 102.182,141.659 102.5,136.5C 107.791,126.834 115.291,124.834 125,130.5C 126.011,129.944 126.844,129.278 127.5,128.5 Z"/></g>
<g><path style="opacity:1" fill="#4c9aba" d="M 540.5,127.5 C 543.518,127.335 546.518,127.502 549.5,128C 548.5,128.833 547.5,129.667 546.5,130.5C 551.827,130.967 556.827,132.3 561.5,134.5C 559.052,135.473 556.385,135.806 553.5,135.5C 551.413,132.669 548.746,132.003 545.5,133.5C 544.571,132.311 544.238,130.978 544.5,129.5C 542.517,129.843 541.183,129.176 540.5,127.5 Z"/></g>
<g><path style="opacity:1" fill="#2c8bb1" d="M 540.5,127.5 C 539.967,129.568 539.967,131.568 540.5,133.5C 537.297,135.577 533.964,135.91 530.5,134.5C 530.5,135.5 530.5,136.5 530.5,137.5C 532.288,137.215 533.955,137.548 535.5,138.5C 531.888,139.547 528.221,140.38 524.5,141C 525.571,141.852 526.571,142.685 527.5,143.5C 522.683,144.739 518.683,147.239 515.5,151C 514.365,151.749 513.365,151.583 512.5,150.5C 516.455,145.013 521.455,140.68 527.5,137.5C 527.043,136.702 526.376,136.369 525.5,136.5C 522.167,135.833 518.833,135.167 515.5,134.5C 520.916,132.284 526.583,131.117 532.5,131C 530.833,130 529.167,129 527.5,128C 530.817,127.502 534.15,127.335 537.5,127.5C 537.215,125.712 537.548,124.045 538.5,122.5C 540.217,123.668 540.884,125.335 540.5,127.5 Z"/></g>
<g><path style="opacity:1" fill="#1a83ae" d="M 540.5,127.5 C 541.183,129.176 542.517,129.843 544.5,129.5C 544.238,130.978 544.571,132.311 545.5,133.5C 548.746,132.003 551.413,132.669 553.5,135.5C 551.91,135.628 550.577,136.295 549.5,137.5C 549.957,138.298 550.624,138.631 551.5,138.5C 552.29,139.401 553.29,140.068 554.5,140.5C 552.365,142.369 549.698,143.036 546.5,142.5C 546.762,146.18 545.428,147.513 542.5,146.5C 542.44,145.957 542.107,145.624 541.5,145.5C 540.177,155.659 540.177,165.659 541.5,175.5C 542.316,177.786 543.65,179.786 545.5,181.5C 541.073,185.447 536.739,185.447 532.5,181.5C 533.48,180.019 534.647,178.685 536,177.5C 536.832,167.151 536.666,156.817 535.5,146.5C 532.484,149.349 529.65,152.349 527,155.5C 526.652,151.724 527.486,148.224 529.5,145C 529.164,143.97 528.497,143.47 527.5,143.5C 526.571,142.685 525.571,141.852 524.5,141C 528.221,140.38 531.888,139.547 535.5,138.5C 533.955,137.548 532.288,137.215 530.5,137.5C 530.5,136.5 530.5,135.5 530.5,134.5C 533.964,135.91 537.297,135.577 540.5,133.5C 539.967,131.568 539.967,129.568 540.5,127.5 Z"/></g>
<g><path style="opacity:1" fill="#1c85ae" d="M 125.5,149.5 C 112.139,154.588 106.973,149.922 110,135.5C 114.391,131.016 119.391,130.349 125,133.5C 125.499,138.823 125.666,144.156 125.5,149.5 Z"/></g>
<g><path style="opacity:1" fill="#accbe5" d="M 127.5,128.5 C 128.919,127.549 130.585,127.216 132.5,127.5C 132.5,135.167 132.5,142.833 132.5,150.5C 131.596,149.791 131.263,148.791 131.5,147.5C 131.5,141.167 131.5,134.833 131.5,128.5C 130.167,128.5 128.833,128.5 127.5,128.5 Z"/></g>
<g><path style="opacity:1" fill="#a3c1cf" d="M 515.5,134.5 C 518.833,135.167 522.167,135.833 525.5,136.5C 521.445,136.824 517.445,136.491 513.5,135.5C 513.957,134.702 514.624,134.369 515.5,134.5 Z"/></g>
<g><path style="opacity:1" fill="#b9d6e2" d="M 580.5,119.5 C 586.066,121.244 591.733,122.577 597.5,123.5C 597.667,160.168 597.5,196.835 597,233.5C 596.809,235.708 596.309,237.708 595.5,239.5C 596.457,201.182 596.79,162.849 596.5,124.5C 593.102,124.82 589.768,124.487 586.5,123.5C 584.466,122.168 582.466,120.834 580.5,119.5 Z"/></g>
<g><path style="opacity:1" fill="#c7e0ea" d="M 561.5,134.5 C 562.552,134.351 563.552,134.517 564.5,135C 565.833,135.667 565.833,136.333 564.5,137C 559.981,137.175 555.647,137.675 551.5,138.5C 550.624,138.631 549.957,138.298 549.5,137.5C 550.577,136.295 551.91,135.628 553.5,135.5C 556.385,135.806 559.052,135.473 561.5,134.5 Z"/></g>
<g><path style="opacity:1" fill="#4190b4" d="M 554.5,140.5 C 558.956,143.122 562.623,146.622 565.5,151C 564.5,151.667 563.5,151.667 562.5,151C 558.488,147.992 554.155,145.492 549.5,143.5C 548.833,143.833 548.167,144.167 547.5,144.5C 550.699,148.263 552.199,152.597 552,157.5C 549.686,153.025 546.52,149.358 542.5,146.5C 545.428,147.513 546.762,146.18 546.5,142.5C 549.698,143.036 552.365,142.369 554.5,140.5 Z"/></g>
<g><path style="opacity:1" fill="#509fbb" d="M 102.5,136.5 C 102.182,141.659 102.848,146.659 104.5,151.5C 102.955,150.77 102.122,149.437 102,147.5C 101.19,143.642 101.357,139.976 102.5,136.5 Z"/></g>
<g><path style="opacity:1" fill="#067db1" d="M 193.5,144.5 C 194.167,144.5 194.5,144.833 194.5,145.5C 174.996,146.828 155.329,146.828 135.5,145.5C 154.822,144.5 174.155,144.167 193.5,144.5 Z"/></g>
<g><path style="opacity:1" fill="#93cbdc" d="M 199.5,149.5 C 200.833,150.167 200.833,150.833 199.5,151.5C 176.994,151.831 154.66,151.497 132.5,150.5C 155.006,150.831 177.34,150.497 199.5,149.5 Z"/></g>
<g><path style="opacity:1" fill="#8bc6d8" d="M 334.5,118.5 C 335.493,126.984 335.826,135.651 335.5,144.5C 335.5,146.167 335.5,147.833 335.5,149.5C 369.996,150.498 404.663,150.832 439.5,150.5C 404.671,151.498 369.671,151.832 334.5,151.5C 334.5,140.5 334.5,129.5 334.5,118.5 Z"/></g>
<g><path style="opacity:1" fill="#f8faf9" d="M 334.5,118.5 C 334.5,129.5 334.5,140.5 334.5,151.5C 369.671,151.832 404.671,151.498 439.5,150.5C 439.608,146.753 439.108,143.086 438,139.5C 437.34,137.676 436.173,136.343 434.5,135.5C 433.694,134.272 432.694,133.272 431.5,132.5C 429.527,131.837 427.361,131.504 425,131.5C 421.523,131.328 418.356,131.994 415.5,133.5C 414.167,133.5 412.833,133.5 411.5,133.5C 411.5,132.5 411.5,131.5 411.5,130.5C 411.842,129.662 412.508,129.328 413.5,129.5C 420.824,128.276 428.158,128.276 435.5,129.5C 442.282,134.278 445.782,140.945 446,149.5C 446.71,150.973 447.876,151.64 449.5,151.5C 449.5,152.5 449.5,153.5 449.5,154.5C 408.833,154.5 368.167,154.5 327.5,154.5C 327.5,143.5 327.5,132.5 327.5,121.5C 326.5,121.5 325.5,121.5 324.5,121.5C 324.5,120.5 324.5,119.5 324.5,118.5C 327.833,118.5 331.167,118.5 334.5,118.5 Z"/></g>
<g><path style="opacity:1" fill="#1481a2" d="M 434.5,135.5 C 436.173,136.343 437.34,137.676 438,139.5C 439.108,143.086 439.608,146.753 439.5,150.5C 404.663,150.832 369.996,150.498 335.5,149.5C 367.502,149.667 399.502,149.5 431.5,149C 433.833,148.667 436.167,148.333 438.5,148C 437.377,146.956 436.044,146.29 434.5,146C 437.051,144.484 436.718,143.651 433.5,143.5C 433.821,141.952 434.821,141.285 436.5,141.5C 436.296,139.315 435.63,137.315 434.5,135.5 Z"/></g>
<g><path style="opacity:1" fill="#0480ae" d="M 433.5,143.5 C 436.718,143.651 437.051,144.484 434.5,146C 436.044,146.29 437.377,146.956 438.5,148C 436.167,148.333 433.833,148.667 431.5,149C 399.502,149.5 367.502,149.667 335.5,149.5C 335.5,147.833 335.5,146.167 335.5,144.5C 367.5,144.5 399.5,144.5 431.5,144.5C 431.343,143.127 431.51,141.793 432,140.5C 432.232,141.737 432.732,142.737 433.5,143.5 Z"/></g>
<g><path style="opacity:1" fill="#9ec5de" d="M 411.5,130.5 C 411.5,131.5 411.5,132.5 411.5,133.5C 412.833,133.5 414.167,133.5 415.5,133.5C 414.081,134.451 412.415,134.784 410.5,134.5C 410.232,132.901 410.566,131.568 411.5,130.5 Z"/></g>
<g><path style="opacity:1" fill="#73b5cd" d="M 431.5,132.5 C 426.13,132.392 420.797,132.725 415.5,133.5C 418.356,131.994 421.523,131.328 425,131.5C 427.361,131.504 429.527,131.837 431.5,132.5 Z"/></g>
<g><path style="opacity:1" fill="#f0f6f6" d="M 279.5,154.5 C 256.141,154.793 232.807,154.459 209.5,153.5C 206.198,154.294 202.865,154.96 199.5,155.5C 199.5,155.167 199.5,154.833 199.5,154.5C 200.376,154.631 201.043,154.298 201.5,153.5C 200.757,152.818 200.091,152.151 199.5,151.5C 200.833,150.833 200.833,150.167 199.5,149.5C 198.415,147.413 196.749,146.08 194.5,145.5C 194.5,144.833 194.167,144.5 193.5,144.5C 192.855,143.188 191.855,142.188 190.5,141.5C 189.369,139.926 189.202,138.259 190,136.5C 192.297,133.02 195.464,131.02 199.5,130.5C 199.5,130.167 199.5,129.833 199.5,129.5C 204.842,128.239 210.175,128.239 215.5,129.5C 218.721,129.896 221.388,131.229 223.5,133.5C 225.016,135.199 226.016,137.199 226.5,139.5C 223.812,142.854 220.812,145.854 217.5,148.5C 215.952,148.821 215.285,149.821 215.5,151.5C 237.007,151.831 258.34,151.497 279.5,150.5C 281.404,150.262 282.738,149.262 283.5,147.5C 284.173,128.168 293.173,122.668 310.5,131C 315.386,137.227 315.719,143.727 311.5,150.5C 305.71,155.259 299.043,156.759 291.5,155C 287.588,153.245 283.588,153.079 279.5,154.5 Z"/></g>
<g><path style="opacity:1" fill="#95cbdd" d="M 217.5,148.5 C 217.389,149.117 217.056,149.617 216.5,150C 237.497,150.5 258.497,150.667 279.5,150.5C 258.34,151.497 237.007,151.831 215.5,151.5C 215.285,149.821 215.952,148.821 217.5,148.5 Z"/></g>
<g><path style="opacity:1" fill="#1985a7" d="M 223.5,133.5 C 224.583,133.539 225.583,133.873 226.5,134.5C 227.484,137.428 227.817,140.428 227.5,143.5C 229.124,143.64 230.29,142.973 231,141.5C 244.258,143.307 257.758,144.14 271.5,144C 207.5,145 207.5,146 271.5,147C 254.016,147.014 236.683,147.68 219.5,149C 240.892,150.012 262.225,149.512 283.5,147.5C 282.738,149.262 281.404,150.262 279.5,150.5C 258.497,150.667 237.497,150.5 216.5,150C 217.056,149.617 217.389,149.117 217.5,148.5C 220.812,145.854 223.812,142.854 226.5,139.5C 226.016,137.199 225.016,135.199 223.5,133.5 Z"/></g>
<g><path style="opacity:1" fill="#59a3bf" d="M 305.5,133.5 C 307.047,135.807 307.713,138.473 307.5,141.5C 307.495,143.696 307.162,145.696 306.5,147.5C 306.563,142.797 306.229,138.13 305.5,133.5 Z"/></g>
<g><path style="opacity:1" fill="#2086ae" d="M 212.5,133.5 C 213.5,133.5 214.5,133.5 215.5,133.5C 217.327,134.932 218.994,136.599 220.5,138.5C 217.542,141.324 214.542,144.158 211.5,147C 210.391,147.638 209.225,148.138 208,148.5C 191.591,138.476 193.091,133.476 212.5,133.5 Z"/></g>
<g><path style="opacity:1" fill="#1682ad" d="M 301.5,131.5 C 303.062,131.733 304.395,132.4 305.5,133.5C 306.229,138.13 306.563,142.797 306.5,147.5C 304.566,150.942 301.566,152.276 297.5,151.5C 294.957,151.36 292.623,150.694 290.5,149.5C 290.167,149 289.833,148.5 289.5,148C 290.986,143.632 291.819,139.132 292,134.5C 292.383,133.944 292.883,133.611 293.5,133.5C 295.882,131.954 298.549,131.287 301.5,131.5 Z"/></g>
<g><path style="opacity:1" fill="#59a7bb" d="M 301.5,131.5 C 298.549,131.287 295.882,131.954 293.5,133.5C 295.615,130.483 298.282,129.816 301.5,131.5 Z"/></g>
<g><path style="opacity:1" fill="#fafaf3" d="M 199.5,130.5 C 204.844,130.334 210.177,130.501 215.5,131C 219.456,132.114 219.456,132.947 215.5,133.5C 214.5,133.5 213.5,133.5 212.5,133.5C 207.906,133.135 203.573,132.135 199.5,130.5 Z"/></g>
<g><path style="opacity:1" fill="#fafdf8" d="M 131.5,147.5 C 131.263,148.791 131.596,149.791 132.5,150.5C 154.66,151.497 176.994,151.831 199.5,151.5C 200.091,152.151 200.757,152.818 201.5,153.5C 201.043,154.298 200.376,154.631 199.5,154.5C 175.158,154.833 150.824,154.5 126.5,153.5C 124.824,152.272 124.491,150.939 125.5,149.5C 126.328,143.681 126.828,137.681 127,131.5C 127.333,136.167 127.667,140.833 128,145.5C 128.5,145 129,144.5 129.5,144C 128.58,139.343 128.58,134.843 129.5,130.5C 130.167,136.319 130.833,141.986 131.5,147.5 Z"/></g>
<g><path style="opacity:1" fill="#d9e1f5" d="M 209.5,153.5 C 232.807,154.459 256.141,154.793 279.5,154.5C 257.337,155.663 235.004,155.83 212.5,155C 211.263,154.768 210.263,154.268 209.5,153.5 Z"/></g>
<g><path style="opacity:1" fill="#dadef5" d="M 449.5,151.5 C 450.434,152.568 450.768,153.901 450.5,155.5C 409.33,155.832 368.33,155.499 327.5,154.5C 368.167,154.5 408.833,154.5 449.5,154.5C 449.5,153.5 449.5,152.5 449.5,151.5 Z"/></g>
<g><path style="opacity:1" fill="#017cad" d="M 450.5,155.5 C 452.665,155.116 454.332,155.783 455.5,157.5C 412.833,158.833 370.167,158.833 327.5,157.5C 368.665,156.833 409.665,156.167 450.5,155.5 Z"/></g>
<g><path style="opacity:1" fill="#037cae" d="M 125.5,154.5 C 125.5,154.833 125.5,155.167 125.5,155.5C 150.477,156.009 175.477,156.843 200.5,158C 174.81,158.203 149.143,158.703 123.5,159.5C 123.714,157.856 123.38,156.356 122.5,155C 123.448,154.517 124.448,154.351 125.5,154.5 Z"/></g>
<g><path style="opacity:1" fill="#037daf" d="M 212.5,156.5 C 236.502,156.333 260.502,156.5 284.5,157C 285.993,158.156 285.826,158.99 284,159.5C 259.842,159.185 236.009,158.185 212.5,156.5 Z"/></g>
<g><path style="opacity:1" fill="#6aaecb" d="M 542.5,146.5 C 541.506,155.986 541.173,165.652 541.5,175.5C 540.177,165.659 540.177,155.659 541.5,145.5C 542.107,145.624 542.44,145.957 542.5,146.5 Z"/></g>
<g><path style="opacity:1" fill="#dbeef3" d="M 433.5,165.5 C 430.05,166.244 428.384,164.91 428.5,161.5C 428.791,160.351 429.624,159.684 431,159.5C 431.833,159.667 432.667,159.833 433.5,160C 434.807,161.943 434.807,163.777 433.5,165.5 Z"/></g>
<g><path style="opacity:1" fill="#89c6db" d="M 428.5,161.5 C 428.384,164.91 430.05,166.244 433.5,165.5C 432.054,166.613 430.387,166.78 428.5,166C 427.199,164.384 427.199,162.884 428.5,161.5 Z"/></g>
<g><path style="opacity:1" fill="#fbfcfb" d="M 441.5,180.5 C 441.5,179.833 441.167,179.5 440.5,179.5C 440.196,178.85 439.863,178.183 439.5,177.5C 442.428,176.516 445.428,176.183 448.5,176.5C 448.5,188.5 448.5,200.5 448.5,212.5C 446.5,212.5 444.5,212.5 442.5,212.5C 442.828,201.654 442.494,190.987 441.5,180.5 Z"/></g>
<g><path style="opacity:1" fill="#e4eef4" d="M 335.5,206.5 C 335.611,207.117 335.944,207.617 336.5,208C 341.684,208.816 346.684,208.65 351.5,207.5C 352.494,198.348 352.827,189.015 352.5,179.5C 351.909,178.849 351.243,178.182 350.5,177.5C 353.645,176.197 356.645,176.197 359.5,177.5C 357.833,177.5 356.167,177.5 354.5,177.5C 354.168,188.187 354.501,198.854 355.5,209.5C 356.167,206.167 356.833,202.833 357.5,199.5C 358.48,202.086 358.813,204.753 358.5,207.5C 359.791,207.737 360.791,207.404 361.5,206.5C 365.966,208.215 370.633,208.882 375.5,208.5C 377.048,208.821 377.715,209.821 377.5,211.5C 377.158,212.338 376.492,212.672 375.5,212.5C 370.899,212.945 366.565,212.278 362.5,210.5C 361.518,209.859 360.518,209.193 359.5,208.5C 356.056,212.798 351.556,214.465 346,213.5C 340.759,214.575 336.759,212.908 334,208.5C 333.617,209.056 333.117,209.389 332.5,209.5C 332.667,198.828 332.5,188.161 332,177.5C 330.75,178.573 329.416,178.573 328,177.5C 326.97,177.836 326.47,178.503 326.5,179.5C 325.5,179.5 324.5,179.5 323.5,179.5C 323.5,178.167 323.5,176.833 323.5,175.5C 326.833,175.5 330.167,175.5 333.5,175.5C 333.334,184.839 333.5,194.173 334,203.5C 335.039,204.244 335.539,205.244 335.5,206.5 Z"/></g>
<g><path style="opacity:1" fill="#fafcf6" d="M 359.5,177.5 C 359.174,186.349 359.507,195.016 360.5,203.5C 361.11,204.391 361.443,205.391 361.5,206.5C 360.791,207.404 359.791,207.737 358.5,207.5C 358.813,204.753 358.48,202.086 357.5,199.5C 356.833,202.833 356.167,206.167 355.5,209.5C 354.501,198.854 354.168,188.187 354.5,177.5C 356.167,177.5 357.833,177.5 359.5,177.5 Z"/></g>
<g><path style="opacity:1" fill="#adcfe5" d="M 360.5,203.5 C 359.507,195.016 359.174,186.349 359.5,177.5C 356.645,176.197 353.645,176.197 350.5,177.5C 351.243,178.182 351.909,178.849 352.5,179.5C 351.5,179.5 350.5,179.5 349.5,179.5C 349.5,178.167 349.5,176.833 349.5,175.5C 353.167,175.5 356.833,175.5 360.5,175.5C 360.5,184.833 360.5,194.167 360.5,203.5 Z"/></g>
<g><path style="opacity:1" fill="#a2d0de" d="M 441.5,180.5 C 442.494,190.987 442.828,201.654 442.5,212.5C 444.5,212.5 446.5,212.5 448.5,212.5C 448.5,200.5 448.5,188.5 448.5,176.5C 445.428,176.183 442.428,176.516 439.5,177.5C 439.863,178.183 440.196,178.85 440.5,179.5C 438.824,178.817 438.157,177.483 438.5,175.5C 442.167,175.5 445.833,175.5 449.5,175.5C 449.5,188.167 449.5,200.833 449.5,213.5C 446.833,213.5 444.167,213.5 441.5,213.5C 441.5,202.5 441.5,191.5 441.5,180.5 Z"/></g>
<g><path style="opacity:1" fill="#90c7df" d="M 309.5,179.5 C 309.5,181.167 309.5,182.833 309.5,184.5C 311.735,184.205 313.735,184.539 315.5,185.5C 313.167,185.5 310.833,185.5 308.5,185.5C 308.205,183.265 308.539,181.265 309.5,179.5 Z"/></g>
<g><path style="opacity:1" fill="#aad2e9" d="M 399.5,185.5 C 393.788,184.931 388.454,185.931 383.5,188.5C 384.453,186.39 386.119,185.223 388.5,185C 392.358,184.19 396.024,184.357 399.5,185.5 Z"/></g>
<g><path style="opacity:1" fill="#5ba8c1" d="M 521.5,184.5 C 520.127,184.343 518.793,184.51 517.5,185C 518.416,185.278 519.082,185.778 519.5,186.5C 514.404,184.464 509.07,183.298 503.5,183C 509.754,182.108 515.754,182.608 521.5,184.5 Z"/></g>
<g><path style="opacity:1" fill="#d7e8f2" d="M 562.5,182.5 C 566.408,181.202 570.408,181.368 574.5,183C 569.706,185.022 564.706,186.188 559.5,186.5C 562.422,184.469 565.755,183.302 569.5,183C 567.19,182.503 564.857,182.337 562.5,182.5 Z"/></g>
<g><path style="opacity:1" fill="#a0cfe3" d="M 309.5,175.5 C 308.542,176.962 307.376,178.295 306,179.5C 305.505,181.473 305.338,183.473 305.5,185.5C 304.022,185.238 302.689,185.571 301.5,186.5C 303.833,186.833 306.167,187.167 308.5,187.5C 311.269,187.471 313.603,186.805 315.5,185.5C 313.603,186.805 311.269,187.471 308.5,187.5C 306.167,187.167 303.833,186.833 301.5,186.5C 302.689,185.571 304.022,185.238 305.5,185.5C 305.338,183.473 305.505,181.473 306,179.5C 307.376,178.295 308.542,176.962 309.5,175.5 Z"/></g>
<g><path style="opacity:1" fill="#f2f6f5" d="M 309.5,175.5 C 311.5,175.5 313.5,175.5 315.5,175.5C 315.5,176.5 315.5,177.5 315.5,178.5C 313.265,178.205 311.265,178.539 309.5,179.5C 308.539,181.265 308.205,183.265 308.5,185.5C 310.833,185.5 313.167,185.5 315.5,185.5C 313.603,186.805 311.269,187.471 308.5,187.5C 306.167,187.167 303.833,186.833 301.5,186.5C 302.689,185.571 304.022,185.238 305.5,185.5C 305.338,183.473 305.505,181.473 306,179.5C 307.376,178.295 308.542,176.962 309.5,175.5 Z"/></g>
<g><path style="opacity:1" fill="#e4edf4" d="M 123.5,187.5 C 119.818,187.335 116.152,187.501 112.5,188C 115.992,187.93 118.992,188.763 121.5,190.5C 119.217,189.971 116.883,189.637 114.5,189.5C 111.012,190.279 107.679,191.279 104.5,192.5C 104.5,190.167 104.5,187.833 104.5,185.5C 110.176,185.334 115.843,185.501 121.5,186C 122.416,186.278 123.082,186.778 123.5,187.5 Z"/></g>
<g><path style="opacity:1" fill="#a7c8dd" d="M 558.5,186.5 C 556.967,188.245 554.967,189.245 552.5,189.5C 554.033,187.755 556.033,186.755 558.5,186.5 Z"/></g>
<g><path style="opacity:1" fill="#d5e8f2" d="M 165.5,187.5 C 165.5,187.833 165.5,188.167 165.5,188.5C 160.821,188.334 156.155,188.501 151.5,189C 151.167,189.333 150.833,189.667 150.5,190C 153.31,190.782 155.977,191.616 158.5,192.5C 158.167,192.5 157.833,192.5 157.5,192.5C 148.08,191.592 144.08,195.925 145.5,205.5C 144.543,201.33 144.543,196.997 145.5,192.5C 147.103,192.688 148.437,192.188 149.5,191C 147.455,190.51 145.455,190.677 143.5,191.5C 144.975,189.59 146.975,188.424 149.5,188C 154.823,187.501 160.156,187.334 165.5,187.5 Z"/></g>
<g><path style="opacity:1" fill="#ddf4f9" d="M 267.5,212.5 C 267.167,212.5 266.833,212.5 266.5,212.5C 266.5,204.5 266.5,196.5 266.5,188.5C 263.753,188.187 261.086,188.52 258.5,189.5C 259.243,190.182 259.909,190.849 260.5,191.5C 259.5,191.5 258.5,191.5 257.5,191.5C 257.5,190.167 257.5,188.833 257.5,187.5C 260.833,187.5 264.167,187.5 267.5,187.5C 267.5,195.833 267.5,204.167 267.5,212.5 Z"/></g>
<g><path style="opacity:1" fill="#94bcd4" d="M 282.5,192.5 C 283.919,191.549 285.585,191.216 287.5,191.5C 287.768,193.099 287.434,194.432 286.5,195.5C 286.5,194.5 286.5,193.5 286.5,192.5C 285.167,192.5 283.833,192.5 282.5,192.5 Z"/></g>
<g><path style="opacity:1" fill="#b5d7e9" d="M 424.5,180.5 C 425.658,189.657 425.824,198.991 425,208.5C 420.4,209.823 415.9,209.823 411.5,208.5C 415.767,208.797 419.934,208.464 424,207.5C 424.5,198.506 424.666,189.506 424.5,180.5 Z"/></g>
<g><path style="opacity:1" fill="#85bdda" d="M 432.5,181.5 C 432.828,192.014 432.494,202.347 431.5,212.5C 431.5,200.5 431.5,188.5 431.5,176.5C 428.428,176.183 425.428,176.516 422.5,177.5C 422.863,178.183 423.196,178.85 423.5,179.5C 421.824,178.817 421.157,177.483 421.5,175.5C 425.167,175.5 428.833,175.5 432.5,175.5C 432.5,177.5 432.5,179.5 432.5,181.5 Z"/></g>
<g><path style="opacity:1" fill="#1988a7" d="M 432.5,181.5 C 433.825,185.445 434.492,189.778 434.5,194.5C 434.511,200.88 434.011,207.213 433,213.5C 427.068,214.825 421.234,214.825 415.5,213.5C 421.026,213.821 426.36,213.488 431.5,212.5C 432.494,202.347 432.828,192.014 432.5,181.5 Z"/></g>
<g><path style="opacity:1" fill="#f1f5f6" d="M 399.5,185.5 C 403.767,186.768 406.767,189.435 408.5,193.5C 408.5,198.167 408.5,202.833 408.5,207.5C 405.299,208.931 402.299,210.597 399.5,212.5C 395.064,212.79 390.73,212.29 386.5,211C 390.025,210.821 393.359,210.321 396.5,209.5C 400.638,209.027 402.638,206.693 402.5,202.5C 403.725,196.79 402.059,192.29 397.5,189C 392.61,187.582 389.11,189.082 387,193.5C 386.228,198.191 385.395,202.858 384.5,207.5C 382.46,208.519 380.46,208.519 378.5,207.5C 380.171,205.49 380.838,203.157 380.5,200.5C 380.335,197.482 380.502,194.482 381,191.5C 381.377,190.058 382.21,189.058 383.5,188.5C 388.454,185.931 393.788,184.931 399.5,185.5 Z"/></g>
<g><path style="opacity:1" fill="#1883ad" d="M 402.5,202.5 C 401.78,205.06 400.113,206.893 397.5,208C 394.183,208.498 390.85,208.665 387.5,208.5C 386.609,207.89 385.609,207.557 384.5,207.5C 385.395,202.858 386.228,198.191 387,193.5C 389.11,189.082 392.61,187.582 397.5,189C 402.059,192.29 403.725,196.79 402.5,202.5 Z"/></g>
<g><path style="opacity:1" fill="#92bed7" d="M 219.5,194.5 C 223.371,194.185 227.038,194.518 230.5,195.5C 227.5,195.5 224.5,195.5 221.5,195.5C 220.596,196.209 220.263,197.209 220.5,198.5C 219.566,197.432 219.232,196.099 219.5,194.5 Z"/></g>
<g><path style="opacity:1" fill="#f2f6f6" d="M 238.5,191.5 C 242.167,191.5 245.833,191.5 249.5,191.5C 249.5,196.167 249.5,200.833 249.5,205.5C 249.443,206.609 249.11,207.609 248.5,208.5C 247.662,208.842 247.328,209.508 247.5,210.5C 246.167,210.833 244.833,211.167 243.5,211.5C 240.813,211.664 238.146,211.497 235.5,211C 237.5,210.667 239.5,210.333 241.5,210C 242.252,209.329 242.586,208.496 242.5,207.5C 242.666,203.486 242.499,199.486 242,195.5C 240.989,194.663 239.822,194.33 238.5,194.5C 238.5,193.5 238.5,192.5 238.5,191.5 Z"/></g>
<g><path style="opacity:1" fill="#2f8bb1" d="M 562.5,182.5 C 564.857,182.337 567.19,182.503 569.5,183C 565.755,183.302 562.422,184.469 559.5,186.5C 559.167,186.5 558.833,186.5 558.5,186.5C 556.033,186.755 554.033,187.755 552.5,189.5C 548.975,190.759 545.975,192.759 543.5,195.5C 545.578,197.986 548.245,198.986 551.5,198.5C 551.238,199.978 551.571,201.311 552.5,202.5C 555.084,203.393 557.751,203.726 560.5,203.5C 560.5,204.833 560.5,206.167 560.5,207.5C 555.297,207.391 550.297,206.391 545.5,204.5C 542.807,198.157 538.807,197.157 533.5,201.5C 532.596,202.209 532.263,203.209 532.5,204.5C 530.585,204.216 528.919,204.549 527.5,205.5C 524.365,207.023 521.032,207.69 517.5,207.5C 517.33,206.178 517.663,205.011 518.5,204C 520.764,203.764 522.931,203.264 525,202.5C 525.49,201.207 525.657,199.873 525.5,198.5C 529.08,199.077 532.08,198.077 534.5,195.5C 529.602,192.223 524.602,189.223 519.5,186.5C 519.082,185.778 518.416,185.278 517.5,185C 518.793,184.51 520.127,184.343 521.5,184.5C 527.617,186.425 533.45,189.092 539,192.5C 543.027,189.138 547.527,186.638 552.5,185C 555.768,183.85 559.101,183.016 562.5,182.5 Z"/></g>
<g><path style="opacity:1" fill="#b2dbe9" d="M 408.5,193.5 C 409.216,198.064 409.883,202.731 410.5,207.5C 409.833,207.5 409.5,207.833 409.5,208.5C 408.833,208.5 408.5,208.167 408.5,207.5C 408.5,202.833 408.5,198.167 408.5,193.5 Z"/></g>
<g><path style="opacity:1" fill="#deedf5" d="M 143.5,191.5 C 143.315,193.196 142.481,194.529 141,195.5C 140.501,200.155 140.334,204.821 140.5,209.5C 140.167,209.5 139.833,209.5 139.5,209.5C 138.355,205.689 138.188,201.689 139,197.5C 139.566,194.771 141.066,192.771 143.5,191.5 Z"/></g>
<g><path style="opacity:1" fill="#3c93b6" d="M 219.5,194.5 C 219.232,196.099 219.566,197.432 220.5,198.5C 221.822,198.33 222.989,198.663 224,199.5C 224.777,202.429 224.61,205.263 223.5,208C 215.507,208.5 207.507,208.666 199.5,208.5C 200.585,206.413 202.251,205.08 204.5,204.5C 204.047,205.458 203.381,206.292 202.5,207C 209.158,207.5 215.825,207.666 222.5,207.5C 222.813,204.753 222.48,202.086 221.5,199.5C 220.702,201.078 220.202,202.744 220,204.5C 218.108,203.383 217.275,201.716 217.5,199.5C 215.645,199.728 214.812,199.061 215,197.5C 216.011,198.337 217.178,198.67 218.5,198.5C 218.773,196.549 218.107,195.049 216.5,194C 217.749,193.26 218.749,193.427 219.5,194.5 Z"/></g>
<g><path style="opacity:1" fill="#358dae" d="M 238.5,191.5 C 238.5,192.5 238.5,193.5 238.5,194.5C 239.822,194.33 240.989,194.663 242,195.5C 242.499,199.486 242.666,203.486 242.5,207.5C 234.682,210.43 231.015,207.763 231.5,199.5C 233.084,201.529 234.417,203.862 235.5,206.5C 237.071,207.309 238.738,207.643 240.5,207.5C 240.249,204.091 240.583,200.758 241.5,197.5C 239.218,196.1 237.718,196.766 237,199.5C 236.567,196.581 237.067,193.914 238.5,191.5 Z"/></g>
<g><path style="opacity:1" fill="#fafaf8" d="M 266.5,212.5 C 262.033,212.867 257.7,212.367 253.5,211C 253.167,210.667 252.833,210.333 252.5,210C 255.365,209.817 258.031,209.317 260.5,208.5C 261.804,202.734 261.804,197.067 260.5,191.5C 259.909,190.849 259.243,190.182 258.5,189.5C 261.086,188.52 263.753,188.187 266.5,188.5C 266.5,196.5 266.5,204.5 266.5,212.5 Z"/></g>
<g><path style="opacity:1" fill="#a5cbdb" d="M 533.5,201.5 C 533.5,202.833 533.5,204.167 533.5,205.5C 531.5,205.5 529.5,205.5 527.5,205.5C 528.919,204.549 530.585,204.216 532.5,204.5C 532.263,203.209 532.596,202.209 533.5,201.5 Z"/></g>
<g><path style="opacity:1" fill="#6babc3" d="M 124.5,195.5 C 125.485,199.634 125.818,203.968 125.5,208.5C 117.5,208.5 109.5,208.5 101.5,208.5C 108.982,207.508 116.648,207.175 124.5,207.5C 124.5,203.5 124.5,199.5 124.5,195.5 Z"/></g>
<g><path style="opacity:1" fill="#69acc6" d="M 165.5,187.5 C 166.491,193.979 166.824,200.646 166.5,207.5C 171.944,208.108 176.944,207.442 181.5,205.5C 183.196,205.685 184.529,206.519 185.5,208C 178.842,208.5 172.175,208.666 165.5,208.5C 165.5,201.833 165.5,195.167 165.5,188.5C 165.5,188.167 165.5,187.833 165.5,187.5 Z"/></g>
<g><path style="opacity:1" fill="#60a5bf" d="M 335.5,206.5 C 340.772,207.4 346.105,207.733 351.5,207.5C 346.684,208.65 341.684,208.816 336.5,208C 335.944,207.617 335.611,207.117 335.5,206.5 Z"/></g>
<g><path style="opacity:1" fill="#7bb7d2" d="M 402.5,202.5 C 402.638,206.693 400.638,209.027 396.5,209.5C 393.287,209.81 390.287,209.477 387.5,208.5C 390.85,208.665 394.183,208.498 397.5,208C 400.113,206.893 401.78,205.06 402.5,202.5 Z"/></g>
<g><path style="opacity:1" fill="#f4f7f8" d="M 123.5,187.5 C 126.607,188.681 129.107,190.681 131,193.5C 131.5,199.825 131.666,206.158 131.5,212.5C 121.5,212.5 111.5,212.5 101.5,212.5C 101.5,211.167 101.5,209.833 101.5,208.5C 109.5,208.5 117.5,208.5 125.5,208.5C 125.818,203.968 125.485,199.634 124.5,195.5C 124.25,193.326 123.25,191.659 121.5,190.5C 118.992,188.763 115.992,187.93 112.5,188C 116.152,187.501 119.818,187.335 123.5,187.5 Z"/></g>
<g><path style="opacity:1" fill="#e0edf4" d="M 221.5,195.5 C 221.62,196.586 222.287,197.253 223.5,197.5C 224.782,196.863 225.782,196.863 226.5,197.5C 225.574,201.094 225.241,204.76 225.5,208.5C 226.93,208.579 228.264,208.246 229.5,207.5C 230.491,203.555 230.824,199.555 230.5,195.5C 231.434,196.568 231.768,197.901 231.5,199.5C 231.015,207.763 234.682,210.43 242.5,207.5C 242.586,208.496 242.252,209.329 241.5,210C 239.5,210.333 237.5,210.667 235.5,211C 238.146,211.497 240.813,211.664 243.5,211.5C 241.052,212.473 238.385,212.806 235.5,212.5C 233.851,211.286 232.185,209.953 230.5,208.5C 229.083,210.261 227.417,211.594 225.5,212.5C 224.833,212.5 224.167,212.5 223.5,212.5C 223.5,211.5 223.5,210.5 223.5,209.5C 215.316,209.826 207.316,209.492 199.5,208.5C 207.507,208.666 215.507,208.5 223.5,208C 224.61,205.263 224.777,202.429 224,199.5C 222.989,198.663 221.822,198.33 220.5,198.5C 220.263,197.209 220.596,196.209 221.5,195.5 Z"/></g>
<g><path style="opacity:1" fill="#f9faf7" d="M 221.5,195.5 C 224.5,195.5 227.5,195.5 230.5,195.5C 230.824,199.555 230.491,203.555 229.5,207.5C 228.264,208.246 226.93,208.579 225.5,208.5C 225.241,204.76 225.574,201.094 226.5,197.5C 225.782,196.863 224.782,196.863 223.5,197.5C 222.287,197.253 221.62,196.586 221.5,195.5 Z"/></g>
<g><path style="opacity:1" fill="#bddcea" d="M 249.5,205.5 C 252.668,208.056 256.334,209.056 260.5,208.5C 258.031,209.317 255.365,209.817 252.5,210C 252.833,210.333 253.167,210.667 253.5,211C 257.7,212.367 262.033,212.867 266.5,212.5C 266.833,212.5 267.167,212.5 267.5,212.5C 263.019,213.648 258.352,213.815 253.5,213C 251.917,211.242 250.25,209.742 248.5,208.5C 249.11,207.609 249.443,206.609 249.5,205.5 Z"/></g>
<g><path style="opacity:1" fill="#f5f8f6" d="M 332.5,209.5 C 331.272,210.306 330.272,211.306 329.5,212.5C 328.833,212.5 328.167,212.5 327.5,212.5C 315.495,212.667 303.495,212.5 291.5,212C 288.588,211.725 285.921,210.891 283.5,209.5C 279.925,204.068 279.592,198.401 282.5,192.5C 283.833,192.5 285.167,192.5 286.5,192.5C 286.5,193.5 286.5,194.5 286.5,195.5C 282.326,199.483 282.66,203.15 287.5,206.5C 287.5,206.833 287.5,207.167 287.5,207.5C 288.263,208.268 289.263,208.768 290.5,209C 302.341,209.826 314.007,209.659 325.5,208.5C 325.5,208.167 325.5,207.833 325.5,207.5C 326.494,198.348 326.827,189.015 326.5,179.5C 326.47,178.503 326.97,177.836 328,177.5C 329.416,178.573 330.75,178.573 332,177.5C 332.5,188.161 332.667,198.828 332.5,209.5 Z"/></g>
<g><path style="opacity:1" fill="#d0ddf2" d="M 287.5,207.5 C 300.137,208.421 312.803,208.754 325.5,208.5C 314.007,209.659 302.341,209.826 290.5,209C 289.263,208.768 288.263,208.268 287.5,207.5 Z"/></g>
<g><path style="opacity:1" fill="#59a3bd" d="M 287.5,207.5 C 287.5,207.167 287.5,206.833 287.5,206.5C 300.141,207.398 312.808,207.732 325.5,207.5C 325.5,207.833 325.5,208.167 325.5,208.5C 312.803,208.754 300.137,208.421 287.5,207.5 Z"/></g>
<g><path style="opacity:1" fill="#d1e7ed" d="M 380.5,200.5 C 380.838,203.157 380.171,205.49 378.5,207.5C 380.46,208.519 382.46,208.519 384.5,207.5C 385.609,207.557 386.609,207.89 387.5,208.5C 390.287,209.477 393.287,209.81 396.5,209.5C 393.359,210.321 390.025,210.821 386.5,211C 390.73,212.29 395.064,212.79 399.5,212.5C 397.359,213.163 395.025,213.497 392.5,213.5C 388.523,213.415 384.856,212.415 381.5,210.5C 380.151,210.846 378.817,211.179 377.5,211.5C 377.715,209.821 377.048,208.821 375.5,208.5C 377.694,206.1 379.361,203.434 380.5,200.5 Z"/></g>
<g><path style="opacity:1" fill="#f2f6f7" d="M 431.5,212.5 C 426.36,213.488 421.026,213.821 415.5,213.5C 412.268,213.228 410.268,211.562 409.5,208.5C 409.5,207.833 409.833,207.5 410.5,207.5C 411.167,207.5 411.5,207.833 411.5,208.5C 415.9,209.823 420.4,209.823 425,208.5C 425.824,198.991 425.658,189.657 424.5,180.5C 424.5,179.833 424.167,179.5 423.5,179.5C 423.196,178.85 422.863,178.183 422.5,177.5C 425.428,176.516 428.428,176.183 431.5,176.5C 431.5,188.5 431.5,200.5 431.5,212.5 Z"/></g>
<g><path style="opacity:1" fill="#93c7de" d="M 101.5,208.5 C 101.5,209.833 101.5,211.167 101.5,212.5C 111.5,212.5 121.5,212.5 131.5,212.5C 121.347,213.494 111.014,213.828 100.5,213.5C 100.216,211.585 100.549,209.919 101.5,208.5 Z"/></g>
<g><path style="opacity:1" fill="#93c7db" d="M 139.5,209.5 C 139.833,209.5 140.167,209.5 140.5,209.5C 140.5,210.5 140.5,211.5 140.5,212.5C 145.833,212.5 151.167,212.5 156.5,212.5C 156.737,213.791 156.404,214.791 155.5,215.5C 150.604,213.554 145.271,212.887 139.5,213.5C 139.5,212.167 139.5,210.833 139.5,209.5 Z"/></g>
<g><path style="opacity:1" fill="#9ccee2" d="M 191.5,211.5 C 193.772,210.236 196.105,210.402 198.5,212C 206.827,212.5 215.16,212.666 223.5,212.5C 224.167,212.5 224.833,212.5 225.5,212.5C 214.227,214.027 202.894,213.693 191.5,211.5 Z"/></g>
<g><path style="opacity:1" fill="#8ec8da" d="M 247.5,210.5 C 246.942,211.79 245.942,212.623 244.5,213C 241.304,213.805 238.304,213.638 235.5,212.5C 238.385,212.806 241.052,212.473 243.5,211.5C 244.833,211.167 246.167,210.833 247.5,210.5 Z"/></g>
<g><path style="opacity:1" fill="#96c9e0" d="M 283.5,209.5 C 285.921,210.891 288.588,211.725 291.5,212C 303.495,212.5 315.495,212.667 327.5,212.5C 316.346,213.495 305.012,213.828 293.5,213.5C 289.225,214.25 285.891,212.917 283.5,209.5 Z"/></g>
<g><path style="opacity:1" fill="#92c5dd" d="M 362.5,210.5 C 366.565,212.278 370.899,212.945 375.5,212.5C 372.024,213.643 368.358,213.81 364.5,213C 363.619,212.292 362.953,211.458 362.5,210.5 Z"/></g>
<g><path style="opacity:1" fill="#1c93b0" d="M 327.5,212.5 C 328.167,212.5 328.833,212.5 329.5,212.5C 329.389,213.117 329.056,213.617 328.5,214C 316.659,214.826 304.993,214.659 293.5,213.5C 305.012,213.828 316.346,213.495 327.5,212.5 Z"/></g>
<g><path style="opacity:1" fill="#f2f6f6" d="M 204.5,204.5 C 202.251,205.08 200.585,206.413 199.5,208.5C 207.316,209.492 215.316,209.826 223.5,209.5C 223.5,210.5 223.5,211.5 223.5,212.5C 215.16,212.666 206.827,212.5 198.5,212C 196.105,210.402 193.772,210.236 191.5,211.5C 181.942,213.027 172.276,214.027 162.5,214.5C 159.956,219.436 155.956,221.769 150.5,221.5C 150.5,220.167 150.5,218.833 150.5,217.5C 152.514,217.608 154.18,216.942 155.5,215.5C 156.404,214.791 156.737,213.791 156.5,212.5C 151.167,212.5 145.833,212.5 140.5,212.5C 140.5,211.5 140.5,210.5 140.5,209.5C 140.334,204.821 140.501,200.155 141,195.5C 142.481,194.529 143.315,193.196 143.5,191.5C 145.455,190.677 147.455,190.51 149.5,191C 148.437,192.188 147.103,192.688 145.5,192.5C 144.543,196.997 144.543,201.33 145.5,205.5C 145.328,206.492 145.662,207.158 146.5,207.5C 150.298,208.483 154.298,208.817 158.5,208.5C 158.5,203.167 158.5,197.833 158.5,192.5C 155.977,191.616 153.31,190.782 150.5,190C 150.833,189.667 151.167,189.333 151.5,189C 156.155,188.501 160.821,188.334 165.5,188.5C 165.5,195.167 165.5,201.833 165.5,208.5C 172.175,208.666 178.842,208.5 185.5,208C 184.529,206.519 183.196,205.685 181.5,205.5C 179.83,202.998 177.664,200.998 175,199.5C 174.14,195.048 175.64,191.548 179.5,189C 190.946,184.491 201.446,185.991 211,193.5C 211.808,195.579 211.641,197.579 210.5,199.5C 208.163,200.843 206.163,202.51 204.5,204.5 Z"/></g>
<g><path style="opacity:1" fill="#1482ad" d="M 157.5,192.5 C 157.5,197.5 157.5,202.5 157.5,207.5C 153.833,207.5 150.167,207.5 146.5,207.5C 145.662,207.158 145.328,206.492 145.5,205.5C 144.08,195.925 148.08,191.592 157.5,192.5 Z"/></g>
<g><path style="opacity:1" fill="#5da4bc" d="M 157.5,192.5 C 157.833,192.5 158.167,192.5 158.5,192.5C 158.5,197.833 158.5,203.167 158.5,208.5C 154.298,208.817 150.298,208.483 146.5,207.5C 150.167,207.5 153.833,207.5 157.5,207.5C 157.5,202.5 157.5,197.5 157.5,192.5 Z"/></g>
<g><path style="opacity:1" fill="#2586af" d="M 187.5,190.5 C 193.464,190.033 198.964,191.366 204,194.5C 204.667,195.5 204.667,196.5 204,197.5C 200.833,200.333 197.667,203.167 194.5,206C 193.5,206.667 192.5,206.667 191.5,206C 187.471,202.966 183.804,199.633 180.5,196C 182.508,193.673 184.842,191.84 187.5,190.5 Z"/></g>
<g><path style="opacity:1" fill="#1783ad" d="M 541.5,225.5 C 543.452,225.005 545.452,224.672 547.5,224.5C 554.764,226.138 562.097,227.138 569.5,227.5C 569.5,228.5 569.5,229.5 569.5,230.5C 567.51,238.772 565.844,247.105 564.5,255.5C 562.2,257.202 559.533,257.868 556.5,257.5C 550.322,255.682 544.488,256.348 539,259.5C 536.916,258.231 534.749,257.231 532.5,256.5C 531.378,255.844 530.045,255.511 528.5,255.5C 523.824,256.504 519.157,257.504 514.5,258.5C 513.596,257.791 513.263,256.791 513.5,255.5C 513.889,252.447 513.223,249.78 511.5,247.5C 509.858,240.931 508.858,234.264 508.5,227.5C 510.735,227.795 512.735,227.461 514.5,226.5C 517.923,225.637 521.256,224.47 524.5,223C 531.481,220.777 536.315,222.943 539,229.5C 539.608,227.934 540.442,226.6 541.5,225.5 Z"/></g>
<g><path style="opacity:1" fill="#4c9ab8" d="M 569.5,230.5 C 569.5,229.5 569.5,228.5 569.5,227.5C 562.097,227.138 554.764,226.138 547.5,224.5C 545.452,224.672 543.452,225.005 541.5,225.5C 542.692,223.078 544.692,222.078 547.5,222.5C 552.32,223.038 556.987,224.205 561.5,226C 564.482,226.498 567.482,226.665 570.5,226.5C 570.768,228.099 570.434,229.432 569.5,230.5 Z"/></g>
<g><path style="opacity:1" fill="#73adbd" d="M 546.5,236.5 C 547.5,236.5 548.5,236.5 549.5,236.5C 551.167,237.167 552.833,237.833 554.5,238.5C 550.818,238.335 547.152,238.501 543.5,239C 543.167,239.333 542.833,239.667 542.5,240C 544.058,240.21 545.391,240.71 546.5,241.5C 544.833,241.5 543.167,241.5 541.5,241.5C 541.5,240.167 541.5,238.833 541.5,237.5C 543.415,237.784 545.081,237.451 546.5,236.5 Z"/></g>
<g><path style="opacity:1" fill="#1984b0" d="M 554.5,238.5 C 553.528,241.437 552.195,244.103 550.5,246.5C 549.857,244.924 548.857,243.59 547.5,242.5C 547.5,241.833 547.167,241.5 546.5,241.5C 545.391,240.71 544.058,240.21 542.5,240C 542.833,239.667 543.167,239.333 543.5,239C 547.152,238.501 550.818,238.335 554.5,238.5 Z"/></g>
<g><path style="opacity:1" fill="#cae1ef" d="M 549.5,236.5 C 552.167,236.5 554.833,236.5 557.5,236.5C 556.18,240.122 554.847,243.788 553.5,247.5C 551.804,249.129 550.804,248.796 550.5,246.5C 552.195,244.103 553.528,241.437 554.5,238.5C 552.833,237.833 551.167,237.167 549.5,236.5 Z"/></g>
<g><path style="opacity:1" fill="#f0f6f3" d="M 524.5,236.5 C 524.665,240.182 524.499,243.848 524,247.5C 523.817,244.635 523.317,241.969 522.5,239.5C 520.972,239.483 520.472,238.816 521,237.5C 522.011,236.663 523.178,236.33 524.5,236.5 Z"/></g>
<g><path style="opacity:1" fill="#b8d4e3" d="M 524.5,236.5 C 525.483,240.298 525.817,244.298 525.5,248.5C 524.5,248.5 523.5,248.5 522.5,248.5C 522.5,245.5 522.5,242.5 522.5,239.5C 523.317,241.969 523.817,244.635 524,247.5C 524.499,243.848 524.665,240.182 524.5,236.5 Z"/></g>
<g><path style="opacity:1" fill="#9ec6d9" d="M 534.5,238.5 C 535.833,240.833 535.833,243.167 534.5,245.5C 533.167,244.833 531.833,244.167 530.5,243.5C 531.239,243.631 531.906,243.464 532.5,243C 531.584,242.722 530.918,242.222 530.5,241.5C 531.833,241.5 533.167,241.5 534.5,241.5C 534.5,240.5 534.5,239.5 534.5,238.5 Z"/></g>
<g><path style="opacity:1" fill="#8ac3d3" d="M 108.5,246.5 C 108.918,245.778 109.584,245.278 110.5,245C 107.5,244.333 104.5,244.333 101.5,245C 102.416,245.278 103.082,245.778 103.5,246.5C 102.5,246.5 101.5,246.5 100.5,246.5C 100.5,245.5 100.5,244.5 100.5,243.5C 104.167,243.5 107.833,243.5 111.5,243.5C 111.5,244.5 111.5,245.5 111.5,246.5C 110.5,246.5 109.5,246.5 108.5,246.5 Z"/></g>
<g><path style="opacity:1" fill="#80b9cd" d="M 193.5,244.5 C 197.298,243.517 201.298,243.183 205.5,243.5C 205.5,246.167 205.5,248.833 205.5,251.5C 204.167,251.5 202.833,251.5 201.5,251.5C 201.5,250.167 201.5,248.833 201.5,247.5C 202.158,248.398 202.824,249.398 203.5,250.5C 204.466,248.604 204.799,246.604 204.5,244.5C 200.833,244.5 197.167,244.5 193.5,244.5 Z"/></g>
<g><path style="opacity:1" fill="#94c8d6" d="M 268.5,244.5 C 266.801,244.34 265.134,244.506 263.5,245C 264.056,245.383 264.389,245.883 264.5,246.5C 264.389,245.883 264.056,245.383 263.5,245C 265.134,244.506 266.801,244.34 268.5,244.5 Z"/></g>
<g><path style="opacity:1" fill="#d9e6f0" d="M 542.5,235.5 C 544.099,235.232 545.432,235.566 546.5,236.5C 545.081,237.451 543.415,237.784 541.5,237.5C 541.5,238.833 541.5,240.167 541.5,241.5C 543.167,241.5 544.833,241.5 546.5,241.5C 547.167,241.5 547.5,241.833 547.5,242.5C 547.671,247.494 545.338,249.328 540.5,248C 544.089,248.29 545.589,246.79 545,243.5C 543.301,242.594 541.467,242.261 539.5,242.5C 539.5,240.167 539.5,237.833 539.5,235.5C 540.5,235.5 541.5,235.5 542.5,235.5 Z"/></g>
<g><path style="opacity:1" fill="#96c7d9" d="M 121.5,247.5 C 121.953,246.542 122.619,245.708 123.5,245C 122.333,244.833 121.167,244.667 120,244.5C 118.319,244.608 117.152,245.275 116.5,246.5C 115.596,245.791 115.263,244.791 115.5,243.5C 118.5,243.5 121.5,243.5 124.5,243.5C 124.912,245.973 123.912,247.306 121.5,247.5 Z"/></g>
<g><path style="opacity:1" fill="#c6e2ea" d="M 129.5,244.5 C 130.833,244.5 132.167,244.5 133.5,244.5C 133.5,245.833 133.5,247.167 133.5,248.5C 130.5,248.833 129.167,247.5 129.5,244.5 Z"/></g>
<g><path style="opacity:1" fill="#d9eaf1" d="M 329.5,244.5 C 330.833,244.5 332.167,244.5 333.5,244.5C 333.5,245.833 333.5,247.167 333.5,248.5C 330.5,248.833 329.167,247.5 329.5,244.5 Z"/></g>
<g><path style="opacity:1" fill="#c9e4ed" d="M 414.5,245.5 C 414.5,246.5 414.5,247.5 414.5,248.5C 413.5,248.5 412.5,248.5 411.5,248.5C 410.566,247.432 410.232,246.099 410.5,244.5C 412.099,244.232 413.432,244.566 414.5,245.5 Z"/></g>
<g><path style="opacity:1" fill="#d4e5f1" d="M 514.5,226.5 C 512.735,227.461 510.735,227.795 508.5,227.5C 508.858,234.264 509.858,240.931 511.5,247.5C 510.069,247.119 509.236,246.119 509,244.5C 508.037,238.535 507.537,232.535 507.5,226.5C 509.833,226.5 512.167,226.5 514.5,226.5 Z"/></g>
<g><path style="opacity:1" fill="#d7e4f0" d="M 536.5,237.5 C 538.197,241.511 537.531,245.011 534.5,248C 532.833,248.667 531.167,248.667 529.5,248C 531.058,247.79 532.391,247.29 533.5,246.5C 533.5,245.833 533.833,245.5 534.5,245.5C 535.833,243.167 535.833,240.833 534.5,238.5C 531.6,237.046 530.267,238.046 530.5,241.5C 530.918,242.222 531.584,242.722 532.5,243C 531.906,243.464 531.239,243.631 530.5,243.5C 527.733,242.246 527.067,240.246 528.5,237.5C 531.201,234.848 533.868,234.848 536.5,237.5 Z"/></g>
<g><path style="opacity:1" fill="#3289ac" d="M 534.5,238.5 C 534.5,239.5 534.5,240.5 534.5,241.5C 533.167,241.5 531.833,241.5 530.5,241.5C 530.267,238.046 531.6,237.046 534.5,238.5 Z"/></g>
<g><path style="opacity:1" fill="#4c98bb" d="M 542.5,235.5 C 541.5,235.5 540.5,235.5 539.5,235.5C 539.5,237.833 539.5,240.167 539.5,242.5C 541.467,242.261 543.301,242.594 545,243.5C 545.589,246.79 544.089,248.29 540.5,248C 545.338,249.328 547.671,247.494 547.5,242.5C 548.857,243.59 549.857,244.924 550.5,246.5C 550.804,248.796 551.804,249.129 553.5,247.5C 553.209,248.649 552.376,249.316 551,249.5C 543.564,248.899 536.064,248.899 528.5,249.5C 528.5,248.5 528.5,247.5 528.5,246.5C 530.167,246.5 531.833,246.5 533.5,246.5C 532.391,247.29 531.058,247.79 529.5,248C 531.167,248.667 532.833,248.667 534.5,248C 537.531,245.011 538.197,241.511 536.5,237.5C 538.048,237.179 538.715,236.179 538.5,234.5C 540.099,234.232 541.432,234.566 542.5,235.5 Z"/></g>
<g><path style="opacity:1" fill="#4899b9" d="M 222.5,268.5 C 223.675,268.719 224.675,268.386 225.5,267.5C 224.833,262.5 224.167,257.5 223.5,252.5C 222.975,251.808 222.308,251.308 221.5,251C 217.848,250.501 214.182,250.335 210.5,250.5C 210.5,251.5 210.5,252.5 210.5,253.5C 213.469,252.671 216.469,252.505 219.5,253C 220.252,253.671 220.586,254.504 220.5,255.5C 217.151,254.03 213.984,254.363 211,256.5C 210.055,256.095 209.388,255.428 209,254.5C 208.764,252.236 208.264,250.069 207.5,248C 209.258,248.344 211.091,248.844 213,249.5C 214.326,249.245 215.326,248.578 216,247.5C 218.719,248.444 221.552,248.777 224.5,248.5C 225.167,255.5 225.833,262.5 226.5,269.5C 224.901,269.768 223.568,269.434 222.5,268.5 Z"/></g>
<g><path style="opacity:1" fill="#bad7e7" d="M 449.5,250.5 C 449.715,252.179 449.048,253.179 447.5,253.5C 447.611,252.883 447.944,252.383 448.5,252C 446.833,251.333 445.167,251.333 443.5,252C 444.791,253.292 444.791,254.458 443.5,255.5C 443.297,253.956 442.63,252.622 441.5,251.5C 444.086,250.52 446.753,250.187 449.5,250.5 Z"/></g>
<g><path style="opacity:1" fill="#e2eef3" d="M 165.5,250.5 C 169.5,250.5 173.5,250.5 177.5,250.5C 176.908,253.127 176.575,255.794 176.5,258.5C 173.239,260.742 169.572,262.075 165.5,262.5C 165.709,263.086 166.043,263.586 166.5,264C 169.89,264.246 173.223,264.746 176.5,265.5C 176.833,266.5 177.167,267.5 177.5,268.5C 177.281,270.693 176.615,272.693 175.5,274.5C 169.507,276.782 164.507,275.615 160.5,271C 160.896,269.103 161.896,267.603 163.5,266.5C 163.546,263.042 163.213,259.542 162.5,256C 162.613,253.601 163.613,251.768 165.5,250.5 Z"/></g>
<g><path style="opacity:1" fill="#acd5e5" d="M 191.5,245.5 C 190.735,248.096 190.401,250.763 190.5,253.5C 189.848,252.551 189.514,251.385 189.5,250C 189.307,247.992 189.974,246.492 191.5,245.5 Z"/></g>
<g><path style="opacity:1" fill="#a8cee2" d="M 246.5,250.5 C 244.219,250.077 242.552,250.744 241.5,252.5C 239.451,252.294 239.117,251.461 240.5,250C 242.712,249.211 244.712,249.378 246.5,250.5 Z"/></g>
<g><path style="opacity:1" fill="#deebf1" d="M 268.5,244.5 C 269.492,251.648 269.825,258.981 269.5,266.5C 269.611,267.117 269.944,267.617 270.5,268C 268.866,268.494 267.199,268.66 265.5,268.5C 265.44,267.957 265.107,267.624 264.5,267.5C 255.675,271.367 251.342,268.367 251.5,258.5C 251.116,252.884 253.783,250.217 259.5,250.5C 261.228,250.59 262.894,250.923 264.5,251.5C 265.788,249.701 265.788,248.035 264.5,246.5C 264.389,245.883 264.056,245.383 263.5,245C 265.134,244.506 266.801,244.34 268.5,244.5 Z"/></g>
<g><path style="opacity:1" fill="#c5dde8" d="M 397.5,257.5 C 396.167,255.833 394.833,254.167 393.5,252.5C 393.918,251.778 394.584,251.278 395.5,251C 398.817,250.502 402.15,250.335 405.5,250.5C 405.5,251.833 405.5,253.167 405.5,254.5C 402.545,253.841 399.545,253.508 396.5,253.5C 396.433,254.959 396.766,256.292 397.5,257.5 Z"/></g>
<g><path style="opacity:1" fill="#bdd6e8" d="M 147.5,251.5 C 149.844,251.94 151.844,252.94 153.5,254.5C 150.871,253.286 148.204,253.286 145.5,254.5C 144.685,252.092 143.019,251.259 140.5,252C 141.824,256.933 141.824,261.766 140.5,266.5C 140.676,261.12 140.342,255.787 139.5,250.5C 142.206,250.575 144.873,250.908 147.5,251.5 Z"/></g>
<g><path style="opacity:1" fill="#6db5cb" d="M 382.5,250.5 C 380.712,250.215 379.045,250.548 377.5,251.5C 377.863,252.183 378.196,252.85 378.5,253.5C 376.824,252.817 376.157,251.483 376.5,249.5C 378.735,249.205 380.735,249.539 382.5,250.5 Z"/></g>
<g><path style="opacity:1" fill="#81b8d1" d="M 511.5,247.5 C 513.223,249.78 513.889,252.447 513.5,255.5C 512.232,253.095 511.565,250.428 511.5,247.5 Z"/></g>
<g><path style="opacity:1" fill="#62a6bd" d="M 264.5,264.5 C 264.665,261.482 264.498,258.482 264,255.5C 261.502,254.221 259.002,254.221 256.5,255.5C 256.685,253.11 258.018,252.11 260.5,252.5C 262.374,252.39 263.874,253.056 265,254.5C 265.808,258.027 265.641,261.36 264.5,264.5 Z"/></g>
<g><path style="opacity:1" fill="#84bbd7" d="M 303.5,244.5 C 300.753,244.187 298.086,244.52 295.5,245.5C 296.325,246.386 297.325,246.719 298.5,246.5C 298.822,252.358 298.489,258.025 297.5,263.5C 297.5,258.167 297.5,252.833 297.5,247.5C 296.5,247.5 295.5,247.5 294.5,247.5C 294.5,246.167 294.5,244.833 294.5,243.5C 297.713,243.19 300.713,243.523 303.5,244.5 Z"/></g>
<g><path style="opacity:1" fill="#489ab7" d="M 419.5,245.5 C 420.919,244.549 422.585,244.216 424.5,244.5C 424.5,246.167 424.5,247.833 424.5,249.5C 430.541,249.747 436.541,249.414 442.5,248.5C 445.029,248.929 447.362,249.596 449.5,250.5C 446.753,250.187 444.086,250.52 441.5,251.5C 442.63,252.622 443.297,253.956 443.5,255.5C 443.5,256.167 443.167,256.5 442.5,256.5C 441.069,254.811 440.236,252.811 440,250.5C 439.144,252.868 438.31,255.202 437.5,257.5C 435.065,255.519 435.065,253.519 437.5,251.5C 436.167,251.167 434.833,250.833 433.5,250.5C 431.667,250.585 430.334,251.252 429.5,252.5C 428.833,252.5 428.167,252.5 427.5,252.5C 426.817,250.824 425.483,250.157 423.5,250.5C 423.5,248.833 423.5,247.167 423.5,245.5C 422.167,245.5 420.833,245.5 419.5,245.5 Z"/></g>
<g><path style="opacity:1" fill="#c8dfe8" d="M 364.5,250.5 C 364.167,251.167 363.833,251.833 363.5,252.5C 363.167,253.167 362.833,253.833 362.5,254.5C 361.566,255.568 361.232,256.901 361.5,258.5C 360.732,257.737 360.232,256.737 360,255.5C 357.17,258.73 356.67,262.397 358.5,266.5C 355.437,260.996 356.103,255.829 360.5,251C 361.793,250.51 363.127,250.343 364.5,250.5 Z"/></g>
<g><path style="opacity:1" fill="#9ccee0" d="M 127.5,252.5 C 128.5,252.5 129.5,252.5 130.5,252.5C 130.819,257.363 130.486,262.03 129.5,266.5C 130.015,261.52 129.348,256.854 127.5,252.5 Z"/></g>
<g><path style="opacity:1" fill="#eff3f7" d="M 145.5,254.5 C 143.825,258.884 144.158,262.884 146.5,266.5C 145.848,267.725 144.681,268.392 143,268.5C 141.319,268.392 140.152,267.725 139.5,266.5C 139.833,266.5 140.167,266.5 140.5,266.5C 141.824,261.766 141.824,256.933 140.5,252C 143.019,251.259 144.685,252.092 145.5,254.5 Z"/></g>
<g><path style="opacity:1" fill="#e1eef4" d="M 157.5,252.5 C 157.181,257.363 157.514,262.03 158.5,266.5C 156.721,268.344 154.388,269.01 151.5,268.5C 153.237,264.066 153.904,259.399 153.5,254.5C 151.844,252.94 149.844,251.94 147.5,251.5C 150.955,250.014 154.288,250.347 157.5,252.5 Z"/></g>
<g><path style="opacity:1" fill="#eff5f8" d="M 246.5,250.5 C 245.946,256.395 246.612,262.062 248.5,267.5C 246.955,268.452 245.288,268.785 243.5,268.5C 243.423,267.25 242.756,266.417 241.5,266C 242.056,265.617 242.389,265.117 242.5,264.5C 242.817,260.298 242.483,256.298 241.5,252.5C 242.552,250.744 244.219,250.077 246.5,250.5 Z"/></g>
<g><path style="opacity:1" fill="#e3eef3" d="M 315.5,251.5 C 317.792,251.244 319.959,251.577 322,252.5C 322.174,257.351 322.674,262.018 323.5,266.5C 324.833,266.5 325.5,267.167 325.5,268.5C 322.813,268.664 320.146,268.497 317.5,268C 318.448,267.517 319.448,267.351 320.5,267.5C 320.819,262.637 320.486,257.97 319.5,253.5C 316.881,253.232 314.381,253.565 312,254.5C 311.019,259.75 311.519,264.75 313.5,269.5C 310.5,269.5 307.5,269.5 304.5,269.5C 304.5,268.5 304.5,267.5 304.5,266.5C 305.5,266.5 306.5,266.5 307.5,266.5C 307.666,262.154 307.499,257.821 307,253.5C 306.075,252.953 305.242,252.287 304.5,251.5C 308.12,250.707 311.787,250.707 315.5,251.5 Z"/></g>
<g><path style="opacity:1" fill="#509fc1" d="M 319.5,253.5 C 319.818,258.032 319.485,262.366 318.5,266.5C 318.5,262.5 318.5,258.5 318.5,254.5C 316.533,254.261 314.699,254.594 313,255.5C 312.024,259.918 312.524,264.085 314.5,268C 314.43,268.765 314.097,269.265 313.5,269.5C 311.519,264.75 311.019,259.75 312,254.5C 314.381,253.565 316.881,253.232 319.5,253.5 Z"/></g>
<g><path style="opacity:1" fill="#cbdef0" d="M 315.5,251.5 C 317.895,250.186 320.395,250.186 323,251.5C 323.499,256.489 323.666,261.489 323.5,266.5C 322.674,262.018 322.174,257.351 322,252.5C 319.959,251.577 317.792,251.244 315.5,251.5 Z"/></g>
<g><path style="opacity:1" fill="#b3d0e7" d="M 328.5,252.5 C 329.805,254.397 330.471,256.731 330.5,259.5C 330.497,262.025 330.163,264.359 329.5,266.5C 329.774,261.737 329.441,257.07 328.5,252.5 Z"/></g>
<g><path style="opacity:1" fill="#f7faf8" d="M 334.5,266.5 C 335.643,268.101 334.976,268.767 332.5,268.5C 330.97,268.36 329.97,267.693 329.5,266.5C 330.163,264.359 330.497,262.025 330.5,259.5C 330.471,256.731 329.805,254.397 328.5,252.5C 327.957,252.44 327.624,252.107 327.5,251.5C 329.396,250.534 331.396,250.201 333.5,250.5C 333.179,256.026 333.512,261.36 334.5,266.5 Z"/></g>
<g><path style="opacity:1" fill="#2a88b1" d="M 363.5,252.5 C 366.393,252.031 368.393,253.031 369.5,255.5C 367.721,257.344 365.388,258.01 362.5,257.5C 362.5,256.5 362.5,255.5 362.5,254.5C 362.833,253.833 363.167,253.167 363.5,252.5 Z"/></g>
<g><path style="opacity:1" fill="#f9fcfa" d="M 414.5,266.5 C 414.611,267.117 414.944,267.617 415.5,268C 413.167,268.667 410.833,268.667 408.5,268C 409.056,267.617 409.389,267.117 409.5,266.5C 409.833,266.5 410.167,266.5 410.5,266.5C 411.163,264.359 411.497,262.025 411.5,259.5C 411.426,256.713 410.76,254.213 409.5,252C 410.793,251.51 412.127,251.343 413.5,251.5C 413.179,256.695 413.513,261.695 414.5,266.5 Z"/></g>
<g><path style="opacity:1" fill="#c4e0ea" d="M 408.5,250.5 C 410.5,250.5 412.5,250.5 414.5,250.5C 414.5,255.833 414.5,261.167 414.5,266.5C 413.513,261.695 413.179,256.695 413.5,251.5C 412.127,251.343 410.793,251.51 409.5,252C 410.76,254.213 411.426,256.713 411.5,259.5C 411.497,262.025 411.163,264.359 410.5,266.5C 411.224,260.992 410.224,255.992 407.5,251.5C 407.624,250.893 407.957,250.56 408.5,250.5 Z"/></g>
<g><path style="opacity:1" fill="#e7eff4" d="M 419.5,245.5 C 420.833,245.5 422.167,245.5 423.5,245.5C 423.5,247.167 423.5,248.833 423.5,250.5C 425.483,250.157 426.817,250.824 427.5,252.5C 426.167,252.5 424.833,252.5 423.5,252.5C 423.5,257.167 423.5,261.833 423.5,266.5C 424.833,266.5 426.167,266.5 427.5,266.5C 427.5,267.5 427.5,268.5 427.5,269.5C 425.5,269.5 423.5,269.5 421.5,269.5C 421.217,268.711 420.717,268.044 420,267.5C 419.667,262.833 419.333,258.167 419,253.5C 418.308,252.975 417.808,252.308 417.5,251.5C 419.104,249.821 419.771,247.821 419.5,245.5 Z"/></g>
<g><path style="opacity:1" fill="#b6d7e5" d="M 108.5,246.5 C 107.945,250.012 108.612,253.012 110.5,255.5C 113.034,256.634 114.367,258.634 114.5,261.5C 113.341,260.544 112.174,259.544 111,258.5C 109.008,259.229 108.174,260.729 108.5,263C 109.091,265.239 109.758,267.406 110.5,269.5C 107.5,269.5 104.5,269.5 101.5,269.5C 101.285,267.821 101.952,266.821 103.5,266.5C 103.389,267.117 103.056,267.617 102.5,268C 104.134,268.494 105.801,268.66 107.5,268.5C 107.175,260.981 107.508,253.648 108.5,246.5 Z"/></g>
<g><path style="opacity:1" fill="#2986b1" d="M 167.5,253.5 C 170.95,252.756 172.616,254.09 172.5,257.5C 171.341,259.377 169.674,259.877 167.5,259C 166.193,257.057 166.193,255.223 167.5,253.5 Z"/></g>
<g><path style="opacity:1" fill="#82bbd0" d="M 167.5,253.5 C 168.946,252.387 170.613,252.22 172.5,253C 173.801,254.616 173.801,256.116 172.5,257.5C 172.616,254.09 170.95,252.756 167.5,253.5 Z"/></g>
<g><path style="opacity:1" fill="#539fba" d="M 165.5,250.5 C 169.646,249.353 173.98,249.186 178.5,250C 179.022,250.561 179.355,251.228 179.5,252C 179.294,254.73 178.294,256.897 176.5,258.5C 176.575,255.794 176.908,253.127 177.5,250.5C 173.5,250.5 169.5,250.5 165.5,250.5 Z"/></g>
<g><path style="opacity:1" fill="#87bccf" d="M 362.5,254.5 C 362.5,255.5 362.5,256.5 362.5,257.5C 365.388,258.01 367.721,257.344 369.5,255.5C 370.404,256.209 370.737,257.209 370.5,258.5C 367.5,258.5 364.5,258.5 361.5,258.5C 361.232,256.901 361.566,255.568 362.5,254.5 Z"/></g>
<g><path style="opacity:1" fill="#1b83b1" d="M 442.5,256.5 C 442.5,257.167 442.5,257.833 442.5,258.5C 441.034,259.347 440.2,260.68 440,262.5C 439.722,261.584 439.222,260.918 438.5,260.5C 437.89,259.609 437.557,258.609 437.5,257.5C 438.31,255.202 439.144,252.868 440,250.5C 440.236,252.811 441.069,254.811 442.5,256.5 Z"/></g>
<g><path style="opacity:1" fill="#a1cddb" d="M 532.5,256.5 C 527.161,256.556 521.994,257.556 517,259.5C 515.93,259.472 515.097,259.139 514.5,258.5C 519.157,257.504 523.824,256.504 528.5,255.5C 530.045,255.511 531.378,255.844 532.5,256.5 Z"/></g>
<g><path style="opacity:1" fill="#77afc5" d="M 564.5,255.5 C 564.853,257.635 564.02,258.968 562,259.5C 559.97,259.046 558.137,258.38 556.5,257.5C 559.533,257.868 562.2,257.202 564.5,255.5 Z"/></g>
<g><path style="opacity:1" fill="#1a84ae" d="M 264.5,264.5 C 261.783,267.145 258.95,267.145 256,264.5C 255.195,261.304 255.362,258.304 256.5,255.5C 259.002,254.221 261.502,254.221 264,255.5C 264.498,258.482 264.665,261.482 264.5,264.5 Z"/></g>
<g><path style="opacity:1" fill="#f2f5f5" d="M 364.5,250.5 C 368.69,250.023 371.69,251.689 373.5,255.5C 373.5,256.833 373.5,258.167 373.5,259.5C 369.167,259.5 364.833,259.5 360.5,259.5C 360.244,261.792 360.577,263.959 361.5,266C 360.906,266.464 360.239,266.631 359.5,266.5C 359.167,266.5 358.833,266.5 358.5,266.5C 356.67,262.397 357.17,258.73 360,255.5C 360.232,256.737 360.732,257.737 361.5,258.5C 364.5,258.5 367.5,258.5 370.5,258.5C 370.737,257.209 370.404,256.209 369.5,255.5C 368.393,253.031 366.393,252.031 363.5,252.5C 363.833,251.833 364.167,251.167 364.5,250.5 Z"/></g>
<g><path style="opacity:1" fill="#e3edf1" d="M 393.5,252.5 C 394.833,254.167 396.167,255.833 397.5,257.5C 400.05,258.358 402.55,259.358 405,260.5C 406.379,264.475 405.213,267.309 401.5,269C 398.183,269.498 394.85,269.665 391.5,269.5C 391.5,267.833 391.5,266.167 391.5,264.5C 394.658,265.876 397.991,266.542 401.5,266.5C 401.714,264.856 401.38,263.356 400.5,262C 393.844,261.558 391.511,258.392 393.5,252.5 Z"/></g>
<g><path style="opacity:1" fill="#eaf2f4" d="M 437.5,257.5 C 437.557,258.609 437.89,259.609 438.5,260.5C 438.5,261.5 438.5,262.5 438.5,263.5C 439.5,263.5 440.5,263.5 441.5,263.5C 441.629,261.784 441.962,260.117 442.5,258.5C 442.5,257.833 442.5,257.167 442.5,256.5C 443.167,256.5 443.5,256.167 443.5,255.5C 444.791,254.458 444.791,253.292 443.5,252C 445.167,251.333 446.833,251.333 448.5,252C 447.944,252.383 447.611,252.883 447.5,253.5C 444.696,259.781 441.862,266.115 439,272.5C 437.308,274.245 435.475,274.578 433.5,273.5C 434.188,272.145 435.188,271.145 436.5,270.5C 437.147,269.726 437.48,268.726 437.5,267.5C 437.66,265.645 436.993,264.312 435.5,263.5C 434.258,259.345 432.258,255.678 429.5,252.5C 430.334,251.252 431.667,250.585 433.5,250.5C 434.833,250.833 436.167,251.167 437.5,251.5C 435.065,253.519 435.065,255.519 437.5,257.5 Z"/></g>
<g><path style="opacity:1" fill="#eef5f3" d="M 108.5,246.5 C 107.508,253.648 107.175,260.981 107.5,268.5C 105.801,268.66 104.134,268.494 102.5,268C 103.056,267.617 103.389,267.117 103.5,266.5C 103.5,259.833 103.5,253.167 103.5,246.5C 103.082,245.778 102.416,245.278 101.5,245C 104.5,244.333 107.5,244.333 110.5,245C 109.584,245.278 108.918,245.778 108.5,246.5 Z"/></g>
<g><path style="opacity:1" fill="#ebf4f4" d="M 121.5,247.5 C 118.997,249.414 116.997,251.748 115.5,254.5C 117.429,258.428 119.762,262.095 122.5,265.5C 123.091,266.151 123.757,266.818 124.5,267.5C 122.604,268.466 120.604,268.799 118.5,268.5C 118.002,265.674 116.669,263.34 114.5,261.5C 114.367,258.634 113.034,256.634 110.5,255.5C 111.914,253.189 113.747,251.189 116,249.5C 116.483,248.552 116.649,247.552 116.5,246.5C 117.152,245.275 118.319,244.608 120,244.5C 121.167,244.667 122.333,244.833 123.5,245C 122.619,245.708 121.953,246.542 121.5,247.5 Z"/></g>
<g><path style="opacity:1" fill="#8fbad2" d="M 442.5,258.5 C 441.962,260.117 441.629,261.784 441.5,263.5C 440.5,263.5 439.5,263.5 438.5,263.5C 438.5,262.5 438.5,261.5 438.5,260.5C 439.222,260.918 439.722,261.584 440,262.5C 440.2,260.68 441.034,259.347 442.5,258.5 Z"/></g>
<g><path style="opacity:1" fill="#4f9bbb" d="M 176.5,258.5 C 177.15,261.805 177.816,265.139 178.5,268.5C 178.333,270.167 178.167,271.833 178,273.5C 177.329,274.252 176.496,274.586 175.5,274.5C 176.615,272.693 177.281,270.693 177.5,268.5C 177.167,267.5 176.833,266.5 176.5,265.5C 173.223,264.746 169.89,264.246 166.5,264C 166.043,263.586 165.709,263.086 165.5,262.5C 169.572,262.075 173.239,260.742 176.5,258.5 Z"/></g>
<g><path style="opacity:1" fill="#e2edf2" d="M 235.5,265.5 C 236.952,266.302 238.618,266.802 240.5,267C 238.063,268.375 235.397,268.875 232.5,268.5C 231.883,268.389 231.383,268.056 231,267.5C 230.879,261.342 230.046,255.342 228.5,249.5C 230.5,249.5 232.5,249.5 234.5,249.5C 234.179,255.026 234.512,260.36 235.5,265.5 Z"/></g>
<g><path style="opacity:1" fill="#dbeaf0" d="M 336.5,250.5 C 339.247,250.187 341.914,250.52 344.5,251.5C 343.978,252.607 343.645,253.774 343.5,255C 344.275,257.822 344.942,260.656 345.5,263.5C 346.5,263.5 347.5,263.5 348.5,263.5C 348.339,260.472 349.006,257.639 350.5,255C 349.852,253.56 349.519,252.06 349.5,250.5C 351.833,250.5 354.167,250.5 356.5,250.5C 355.286,253.253 353.786,255.92 352,258.5C 350.974,262.29 349.807,265.957 348.5,269.5C 346.856,269.714 345.356,269.38 344,268.5C 343.587,265.768 342.92,263.101 342,260.5C 339.888,257.273 338.055,253.94 336.5,250.5 Z"/></g>
<g><path style="opacity:1" fill="#e9f3f6" d="M 382.5,250.5 C 385.024,250.957 387.691,250.957 390.5,250.5C 390.5,251.5 390.5,252.5 390.5,253.5C 388.173,253.247 386.173,253.914 384.5,255.5C 383.511,259.107 383.177,262.774 383.5,266.5C 383.918,267.222 384.584,267.722 385.5,268C 382.833,268.667 380.167,268.667 377.5,268C 378.056,267.617 378.389,267.117 378.5,266.5C 379.833,262.167 379.833,257.833 378.5,253.5C 378.196,252.85 377.863,252.183 377.5,251.5C 379.045,250.548 380.712,250.215 382.5,250.5 Z"/></g>
<g><path style="opacity:1" fill="#e2eef2" d="M 193.5,244.5 C 197.167,244.5 200.833,244.5 204.5,244.5C 204.799,246.604 204.466,248.604 203.5,250.5C 202.824,249.398 202.158,248.398 201.5,247.5C 199.218,246.61 196.885,246.444 194.5,247C 193.167,249 193.167,251 194.5,253C 198.099,254.309 201.599,255.809 205,257.5C 206.557,268.092 202.057,271.758 191.5,268.5C 190.307,268.03 189.64,267.03 189.5,265.5C 190.101,261.622 190.935,261.622 192,265.5C 192.671,266.252 193.504,266.586 194.5,266.5C 200.501,267.439 202.501,265.105 200.5,259.5C 197.327,258.79 194.327,257.623 191.5,256C 190.748,255.329 190.414,254.496 190.5,253.5C 190.401,250.763 190.735,248.096 191.5,245.5C 191.842,244.662 192.508,244.328 193.5,244.5 Z"/></g>
<g><path style="opacity:1" fill="#8bc4db" d="M 194.5,266.5 C 193.504,266.586 192.671,266.252 192,265.5C 190.935,261.622 190.101,261.622 189.5,265.5C 189.64,267.03 190.307,268.03 191.5,268.5C 190.791,269.404 189.791,269.737 188.5,269.5C 188.5,266.833 188.5,264.167 188.5,261.5C 189.833,261.5 191.167,261.5 192.5,261.5C 192.392,263.514 193.058,265.18 194.5,266.5 Z"/></g>
<g><path style="opacity:1" fill="#dbe9f0" d="M 222.5,268.5 C 218.837,269.112 215.17,269.279 211.5,269C 208.431,264.675 209.098,261.008 213.5,258C 216.361,258.03 218.695,257.197 220.5,255.5C 220.586,254.504 220.252,253.671 219.5,253C 216.469,252.505 213.469,252.671 210.5,253.5C 210.5,252.5 210.5,251.5 210.5,250.5C 214.182,250.335 217.848,250.501 221.5,251C 222.308,251.308 222.975,251.808 223.5,252.5C 224.167,257.5 224.833,262.5 225.5,267.5C 224.675,268.386 223.675,268.719 222.5,268.5 Z"/></g>
<g><path style="opacity:1" fill="#3d91b3" d="M 213.5,260.5 C 215.833,260.5 218.167,260.5 220.5,260.5C 220.875,265.495 218.542,267.495 213.5,266.5C 213.5,264.5 213.5,262.5 213.5,260.5 Z"/></g>
<g><path style="opacity:1" fill="#e4edf1" d="M 288.5,246.5 C 287.5,246.5 286.5,246.5 285.5,246.5C 285.178,252.358 285.511,258.025 286.5,263.5C 288.396,266.26 291.063,267.094 294.5,266C 295.942,265.623 296.942,264.79 297.5,263.5C 298.489,258.025 298.822,252.358 298.5,246.5C 297.325,246.719 296.325,246.386 295.5,245.5C 298.086,244.52 300.753,244.187 303.5,244.5C 301.846,250.631 301.013,256.964 301,263.5C 297.723,269.109 292.89,270.942 286.5,269C 283.898,268.065 282.398,266.232 282,263.5C 281.667,258.167 281.333,252.833 281,247.5C 280.308,246.975 279.808,246.308 279.5,245.5C 281,245.167 282.5,244.833 284,244.5C 285.986,244.569 287.486,245.235 288.5,246.5 Z"/></g>
<g><path style="opacity:1" fill="#74acd2" d="M 288.5,246.5 C 286.621,251.87 285.955,257.537 286.5,263.5C 285.511,258.025 285.178,252.358 285.5,246.5C 286.5,246.5 287.5,246.5 288.5,246.5 Z"/></g>
<g><path style="opacity:1" fill="#d1e3ef" d="M 373.5,255.5 C 374.451,256.919 374.784,258.585 374.5,260.5C 370.167,260.5 365.833,260.5 361.5,260.5C 361.178,262.722 361.845,264.556 363.5,266C 367.069,266.682 370.402,266.182 373.5,264.5C 373.863,266.911 372.863,268.411 370.5,269C 367.833,269.667 365.167,269.667 362.5,269C 361.058,268.623 360.058,267.79 359.5,266.5C 360.239,266.631 360.906,266.464 361.5,266C 360.577,263.959 360.244,261.792 360.5,259.5C 364.833,259.5 369.167,259.5 373.5,259.5C 373.5,258.167 373.5,256.833 373.5,255.5 Z"/></g>
<g><path style="opacity:1" fill="#ecf2f0" d="M 133.5,250.5 C 132.946,256.395 133.612,262.062 135.5,267.5C 134.167,267.833 132.833,268.167 131.5,268.5C 129.667,268.415 128.334,267.748 127.5,266.5C 128.167,266.5 128.833,266.5 129.5,266.5C 130.486,262.03 130.819,257.363 130.5,252.5C 129.5,252.5 128.5,252.5 127.5,252.5C 128.918,250.692 130.918,250.025 133.5,250.5 Z"/></g>
<g><path style="opacity:1" fill="#338db1" d="M 414.5,245.5 C 415.429,246.936 416.595,248.269 418,249.5C 418.21,247.942 418.71,246.609 419.5,245.5C 419.771,247.821 419.104,249.821 417.5,251.5C 417.808,252.308 418.308,252.975 419,253.5C 419.333,258.167 419.667,262.833 420,267.5C 420.717,268.044 421.217,268.711 421.5,269.5C 419.508,269.328 417.842,269.995 416.5,271.5C 413.689,270.92 411.023,270.254 408.5,269.5C 411.167,269.5 413.833,269.5 416.5,269.5C 416.715,267.821 416.048,266.821 414.5,266.5C 414.5,261.167 414.5,255.833 414.5,250.5C 412.5,250.5 410.5,250.5 408.5,250.5C 409.5,249.833 410.5,249.167 411.5,248.5C 412.5,248.5 413.5,248.5 414.5,248.5C 414.5,247.5 414.5,246.5 414.5,245.5 Z"/></g>
<g><path style="opacity:1" fill="#79b4cb" d="M 435.5,263.5 C 436.993,264.312 437.66,265.645 437.5,267.5C 437.48,268.726 437.147,269.726 436.5,270.5C 436.552,268.097 436.219,265.764 435.5,263.5 Z"/></g>
<g><path style="opacity:1" fill="#8ab5cd" d="M 158.5,266.5 C 159.404,267.209 159.737,268.209 159.5,269.5C 156.833,269.5 154.167,269.5 151.5,269.5C 151.5,269.167 151.5,268.833 151.5,268.5C 154.388,269.01 156.721,268.344 158.5,266.5 Z"/></g>
<g><path style="opacity:1" fill="#87bdd1" d="M 242.5,264.5 C 242.389,265.117 242.056,265.617 241.5,266C 242.756,266.417 243.423,267.25 243.5,268.5C 240.006,269.542 236.339,269.542 232.5,268.5C 235.397,268.875 238.063,268.375 240.5,267C 238.618,266.802 236.952,266.302 235.5,265.5C 237.903,265.552 240.236,265.219 242.5,264.5 Z"/></g>
<g><path style="opacity:1" fill="#8ec3d2" d="M 269.5,266.5 C 271.048,266.821 271.715,267.821 271.5,269.5C 269.265,269.795 267.265,269.461 265.5,268.5C 267.265,269.461 269.265,269.795 271.5,269.5C 271.715,267.821 271.048,266.821 269.5,266.5 Z"/></g>
<g><path style="opacity:1" fill="#b4d0e0" d="M 319.5,253.5 C 320.486,257.97 320.819,262.637 320.5,267.5C 319.448,267.351 318.448,267.517 317.5,268C 320.146,268.497 322.813,268.664 325.5,268.5C 322.713,269.477 319.713,269.81 316.5,269.5C 316.285,267.821 316.952,266.821 318.5,266.5C 319.485,262.366 319.818,258.032 319.5,253.5 Z"/></g>
<g><path style="opacity:1" fill="#b3cfe3" d="M 329.5,266.5 C 329.97,267.693 330.97,268.36 332.5,268.5C 334.976,268.767 335.643,268.101 334.5,266.5C 336.048,266.821 336.715,267.821 336.5,269.5C 333.5,269.5 330.5,269.5 327.5,269.5C 327.285,267.821 327.952,266.821 329.5,266.5 Z"/></g>
<g><path style="opacity:1" fill="#a2c8dc" d="M 378.5,266.5 C 378.389,267.117 378.056,267.617 377.5,268C 380.167,268.667 382.833,268.667 385.5,268C 384.584,267.722 383.918,267.222 383.5,266.5C 384.5,266.5 385.5,266.5 386.5,266.5C 386.5,267.5 386.5,268.5 386.5,269.5C 383.167,269.5 379.833,269.5 376.5,269.5C 376.285,267.821 376.952,266.821 378.5,266.5 Z"/></g>
<g><path style="opacity:1" fill="#accbdf" d="M 409.5,266.5 C 409.389,267.117 409.056,267.617 408.5,268C 410.833,268.667 413.167,268.667 415.5,268C 414.944,267.617 414.611,267.117 414.5,266.5C 416.048,266.821 416.715,267.821 416.5,269.5C 413.833,269.5 411.167,269.5 408.5,269.5C 407.115,268.053 407.448,267.053 409.5,266.5 Z"/></g>
<g><path style="opacity:1" fill="#358bb2" d="M 164.5,267.5 C 167.518,267.335 170.518,267.502 173.5,268C 174.925,269.714 174.592,271.047 172.5,272C 170.167,272.667 167.833,272.667 165.5,272C 164.62,270.644 164.286,269.144 164.5,267.5 Z"/></g>
<g><path style="opacity:1" fill="#388fb3" d="M 157.5,252.5 C 154.288,250.347 150.955,250.014 147.5,251.5C 144.873,250.908 142.206,250.575 139.5,250.5C 140.342,255.787 140.676,261.12 140.5,266.5C 140.167,266.5 139.833,266.5 139.5,266.5C 138.596,267.209 138.263,268.209 138.5,269.5C 141.5,269.5 144.5,269.5 147.5,269.5C 147.737,268.209 147.404,267.209 146.5,266.5C 144.158,262.884 143.825,258.884 145.5,254.5C 148.204,253.286 150.871,253.286 153.5,254.5C 153.904,259.399 153.237,264.066 151.5,268.5C 151.5,268.833 151.5,269.167 151.5,269.5C 145.964,270.207 140.298,270.874 134.5,271.5C 132.562,268.921 130.729,268.921 129,271.5C 125.534,270.059 122.034,269.059 118.5,268.5C 120.604,268.799 122.604,268.466 124.5,267.5C 123.757,266.818 123.091,266.151 122.5,265.5C 124.144,265.714 125.644,265.38 127,264.5C 127.464,265.094 127.631,265.761 127.5,266.5C 128.334,267.748 129.667,268.415 131.5,268.5C 132.833,268.167 134.167,267.833 135.5,267.5C 133.612,262.062 132.946,256.395 133.5,250.5C 134.166,254.684 134.833,259.018 135.5,263.5C 136.086,263.709 136.586,264.043 137,264.5C 137.717,260.955 137.55,257.455 136.5,254C 137.305,249.906 139.805,247.74 144,247.5C 147.852,249.23 152.018,250.063 156.5,250C 157.252,250.671 157.586,251.504 157.5,252.5 Z"/></g>
<g><path style="opacity:1" fill="#84bdcc" d="M 139.5,266.5 C 140.152,267.725 141.319,268.392 143,268.5C 144.681,268.392 145.848,267.725 146.5,266.5C 147.404,267.209 147.737,268.209 147.5,269.5C 144.5,269.5 141.5,269.5 138.5,269.5C 138.263,268.209 138.596,267.209 139.5,266.5 Z"/></g>
<g><path style="opacity:1" fill="#037cae" d="M 543.5,314.5 C 369.333,314.833 195.333,314.5 21.5,313.5C 108.597,312.835 195.764,312.501 283,312.5C 370.169,312.5 457.003,313.167 543.5,314.5 Z"/></g>
<g><path style="opacity:1" fill="#45acbc" d="M 20.5,83.5 C 20.8333,83.5 21.1667,83.5 21.5,83.5C 21.5,84.5 21.5,85.5 21.5,86.5C 21.5,86.8333 21.5,87.1667 21.5,87.5C 21.5,162.833 21.5,238.167 21.5,313.5C 195.333,314.5 369.333,314.833 543.5,314.5C 545.167,314.5 546.833,314.5 548.5,314.5C 372.667,315.5 196.667,315.833 20.5,315.5C 20.5,238.167 20.5,160.833 20.5,83.5 Z"/></g>
<g><path style="opacity:1" fill="#fefcf2" d="M 18.5,317.5 C 197.333,316.334 376.333,316.167 555.5,317C 554.228,318.046 552.728,318.546 551,318.5C 373.483,318.825 195.983,318.492 18.5,317.5 Z"/></g>
</svg>
