<?xml version="1.0" standalone="no"?>
<!DOCTYPE svg PUBLIC "-//W3C//DTD SVG 20010904//EN"
 "http://www.w3.org/TR/2001/REC-SVG-20010904/DTD/svg10.dtd">
<svg version="1.0" xmlns="http://www.w3.org/2000/svg"
 width="650.000000pt" height="395.000000pt" viewBox="0 0 650.000000 395.000000"
 preserveAspectRatio="xMidYMid meet">

<g transform="translate(0.000000,395.000000) scale(0.100000,-0.100000)"
fill="currentColor" stroke="currentColor">
<path d="M220 1950 l0 -1150 2673 3 c2552 2 2675 3 2732 21 148 45 284 124
385 224 85 85 117 128 169 227 46 86 75 179 90 290 5 39 10 395 10 803 l1 732
-3030 0 -3030 0 0 -1150z m5216 946 c103 -50 388 -148 501 -171 17 -3 37 -12
43 -20 8 -10 10 -170 7 -577 -3 -480 -5 -570 -19 -608 -66 -188 -185 -318
-358 -392 -66 -28 -88 -32 -188 -36 -132 -5 -173 4 -289 60 -134 65 -251 197
-298 335 -29 86 -34 185 -35 699 0 398 3 514 13 522 6 5 50 20 97 31 121 31
281 86 380 131 98 43 107 45 146 26z m-4262 -92 c16 -6 21 -30 10 -58 -9 -23
-50 -20 -68 6 -14 20 -14 24 1 40 17 19 31 22 57 12z m120 -16 c24 -40 -44
-80 -71 -42 -17 23 -16 29 3 49 20 20 53 16 68 -7z m2064 -185 l2 -163 515 0
c443 0 515 2 515 15 0 43 -24 115 -45 135 -33 31 -99 37 -165 15 -57 -19 -74
-13 -68 26 3 21 12 26 72 38 81 17 157 6 205 -30 30 -22 63 -91 76 -158 5 -21
14 -35 27 -39 13 -3 18 -12 16 -29 -4 -29 61 -27 -740 -24 l-498 1 0 165 c0
134 -3 165 -14 165 -14 0 -28 34 -18 45 3 3 31 5 62 3 l55 -3 3 -162z m-2129
62 c26 -13 30 -13 41 0 15 18 60 20 60 3 1 -7 1 -60 2 -116 1 -66 5 -105 12
-108 6 -2 157 -3 336 -2 l325 3 -52 40 c-64 49 -71 66 -43 105 66 93 251 104
338 19 47 -46 42 -69 -25 -120 l-56 -44 294 -3 c193 -2 307 1 332 8 42 12 57
38 57 98 0 49 18 81 60 110 30 20 44 23 97 20 72 -4 108 -26 136 -79 20 -39
16 -119 -9 -156 -36 -56 -146 -79 -221 -48 -28 12 -43 13 -72 4 -24 -7 -157
-9 -391 -6 -195 3 -359 4 -365 4 -5 0 -192 -2 -415 -6 -298 -4 -407 -3 -412 5
-6 9 -19 8 -50 -3 -63 -21 -131 -3 -163 45 -34 49 -34 125 -2 173 41 62 125
86 186 54z m3129 -346 c7 -45 -56 -60 -79 -18 -7 14 -5 23 11 39 25 25 63 14
68 -21z m-1193 -129 c9 -15 -12 -38 -38 -42 -14 -2 -23 -11 -25 -25 -3 -20 1
-23 32 -23 29 0 36 -4 36 -20 0 -18 -7 -20 -85 -20 -78 0 -85 2 -85 20 0 15 7
20 25 20 21 0 25 5 25 30 0 41 31 70 74 70 19 0 38 -5 41 -10z m169 4 c14 -5
16 -27 16 -143 0 -175 3 -181 99 -181 54 0 70 4 75 16 3 9 6 69 6 134 0 109
-1 118 -20 123 -12 3 -20 14 -20 26 0 19 6 21 59 21 44 0 60 -4 65 -16 3 -9 6
-75 6 -148 0 -89 4 -136 12 -144 7 -7 37 -12 68 -12 71 0 88 16 100 96 11 78
14 85 54 112 26 18 48 23 91 23 101 0 159 -57 157 -154 0 -28 4 -57 10 -64 6
-8 33 -13 69 -13 l58 0 3 128 c3 111 1 129 -14 141 -10 7 -18 22 -18 32 0 17
8 19 60 19 l60 0 0 -190 0 -190 -104 0 c-101 0 -105 1 -125 27 l-21 26 -25
-23 c-43 -40 -150 -48 -215 -15 -21 11 -29 11 -45 -1 -30 -22 -137 -19 -166 5
-24 19 -24 19 -44 0 -17 -15 -37 -19 -109 -20 -77 -1 -90 1 -111 21 l-23 22
-21 -21 c-20 -20 -31 -21 -226 -21 -233 0 -254 5 -280 66 -19 46 -19 75 -1
119 12 27 21 35 40 35 30 0 33 -16 10 -57 -20 -36 -6 -79 31 -93 15 -6 102
-10 195 -10 144 0 169 2 174 16 3 9 6 67 6 130 0 103 -2 115 -20 126 -20 13
-26 38 -13 51 8 9 76 9 97 1z m1164 -196 l-3 -191 -33 -1 c-19 -1 -37 3 -40 9
-3 5 -5 78 -3 161 3 146 2 153 -18 164 -12 6 -21 20 -21 30 0 18 7 20 60 20
l60 0 -2 -192z m-3248 80 c63 -32 80 -70 80 -180 0 -52 -4 -88 -10 -89 -5 0
-28 -1 -50 -1 -22 0 -90 1 -151 1 l-110 1 3 28 3 27 119 3 119 3 -6 66 c-5 49
-12 72 -29 90 -28 30 -87 32 -113 3 -28 -31 -59 -22 -63 18 -4 40 17 50 103
51 44 1 73 -5 105 -21z m785 -7 c41 -18 95 -72 95 -94 0 -7 -23 -33 -52 -59
l-53 -48 108 0 107 0 0 39 c0 31 -4 41 -20 46 -11 3 -20 15 -20 26 0 17 7 19
60 19 l60 0 0 -34 c0 -18 5 -47 11 -65 10 -28 15 -31 50 -31 l39 0 0 59 c0 51
-3 59 -21 64 -13 4 -20 12 -17 24 3 14 14 19 61 21 41 2 57 -1 58 -10 1 -7 3
-39 5 -71 4 -72 15 -87 65 -87 l39 0 0 74 c0 66 -2 75 -20 81 -13 4 -20 15
-20 31 0 24 2 25 58 22 l57 -3 3 -124 c1 -69 1 -130 -1 -136 -3 -6 -32 -8 -82
-5 -60 4 -80 9 -91 24 -14 19 -14 19 -37 -2 -32 -30 -116 -31 -142 -2 -18 20
-18 20 -39 0 -21 -18 -36 -19 -330 -19 l-307 0 -43 -45 c-35 -39 -48 -46 -79
-46 -33 0 -37 3 -37 24 0 15 7 27 19 31 11 3 25 13 32 21 11 14 5 15 -52 14
-95 -2 -94 -3 -107 33 -18 50 -15 117 7 153 31 50 110 84 198 84 l73 0 0 -105
0 -105 86 0 87 0 -52 42 c-54 44 -61 64 -35 104 44 66 191 95 279 55z m-915
-575 c0 -8 -7 -16 -15 -20 -10 -4 -15 -19 -15 -48 l0 -43 40 44 c31 34 37 47
29 57 -15 18 7 26 57 22 41 -3 57 -24 27 -35 -10 -3 -32 -22 -50 -41 l-31 -35
39 -59 c22 -32 44 -58 49 -58 6 0 10 -7 10 -15 0 -11 -11 -15 -38 -15 -31 0
-39 4 -50 29 -7 16 -22 41 -34 56 -19 24 -21 25 -34 8 -18 -24 -18 -50 1 -57
8 -3 15 -12 15 -21 0 -12 -12 -15 -55 -15 -43 0 -55 3 -55 15 0 9 6 18 13 20
14 6 11 174 -4 190 -23 23 -8 35 46 35 40 0 55 -4 55 -14z m228 -96 c2 -74 7
-109 17 -120 12 -11 18 -11 27 -2 14 14 11 121 -4 139 -5 7 -7 17 -3 23 8 13
62 13 70 0 4 -7 12 -7 25 0 26 14 73 13 88 -2 7 -7 12 -40 12 -78 0 -64 10
-90 36 -90 15 0 24 69 13 92 -10 19 5 68 24 80 18 12 135 9 143 -3 3 -6 1 -16
-5 -22 -6 -6 -11 -20 -11 -32 0 -35 -25 -58 -71 -65 l-44 -7 48 -2 c32 -1 53
-7 67 -21 46 -46 10 -92 -78 -98 -64 -4 -92 9 -95 46 0 12 -5 18 -9 14 -12
-12 -91 1 -96 16 -2 6 3 12 12 12 13 0 16 12 16 61 l0 60 -32 -3 c-32 -3 -33
-5 -36 -53 -2 -37 1 -52 13 -62 32 -23 5 -32 -95 -32 -78 0 -100 3 -100 14 0
8 5 17 10 20 6 3 10 31 10 62 0 41 -5 59 -17 69 -17 13 -17 15 1 28 10 8 15
19 12 24 -11 19 6 43 28 40 20 -3 21 -10 24 -108z m714 85 c3 -14 -1 -33 -9
-42 -13 -17 -14 -17 -29 5 -19 26 -69 30 -78 6 -9 -23 -1 -31 53 -49 66 -22
85 -63 57 -127 -11 -25 -63 -39 -118 -32 l-49 7 3 40 c4 47 24 60 38 23 5 -14
13 -26 17 -27 5 0 18 -2 31 -3 12 -2 27 3 33 10 20 24 0 49 -51 67 -56 20 -76
51 -65 96 10 38 34 50 101 51 58 0 62 -2 66 -25z m638 -85 c0 -91 3 -111 16
-118 28 -16 5 -33 -44 -32 -26 0 -62 -1 -81 -1 -69 -3 -102 78 -65 157 18 37
45 49 94 42 32 -5 43 15 15 26 -8 3 -15 12 -15 21 0 11 11 15 40 15 l40 0 0
-110z m200 95 c0 -9 -7 -18 -15 -21 -12 -5 -15 -24 -15 -85 0 -72 2 -80 24
-94 17 -11 30 -13 48 -6 33 12 38 28 38 111 0 60 -2 68 -21 73 -39 10 -15 32
39 35 47 3 52 1 52 -17 0 -12 -7 -21 -15 -21 -12 0 -15 -16 -15 -84 0 -105
-19 -135 -91 -143 -38 -4 -50 -1 -77 22 -32 26 -32 28 -32 116 0 72 -3 89 -15
89 -8 0 -15 9 -15 20 0 18 7 20 55 20 43 0 55 -3 55 -15z m448 -100 c2 -65 8
-112 14 -116 6 -4 8 -14 5 -23 -7 -18 -72 -23 -83 -5 -4 8 -9 8 -17 0 -18 -18
-87 -14 -94 6 -4 9 -1 19 5 21 8 2 12 26 12 63 0 60 0 60 -27 57 -26 -3 -28
-6 -31 -57 -2 -34 1 -57 9 -62 25 -15 1 -39 -41 -39 -43 0 -63 21 -41 43 18
18 14 118 -6 132 -9 7 -13 17 -9 23 9 15 62 16 71 2 4 -7 12 -7 25 0 26 14 73
13 88 -2 7 -7 12 -39 12 -76 0 -71 18 -104 45 -82 20 17 20 104 0 124 -21 20
-19 46 3 46 15 0 18 6 14 31 -4 28 -2 30 19 27 23 -3 24 -6 27 -113z m801 8
c1 -83 5 -111 16 -119 32 -24 10 -44 -46 -44 -32 0 -49 24 -30 43 14 14 15
127 1 127 -19 0 -10 32 10 37 16 4 18 8 9 19 -15 19 -4 44 20 44 18 0 19 -8
20 -107z m99 70 c4 -25 10 -27 88 -23 38 1 53 -2 57 -14 3 -8 0 -19 -8 -23
-12 -7 -11 -15 4 -48 l19 -40 11 28 c14 35 14 54 1 62 -5 3 -7 12 -3 20 5 16
78 22 87 7 5 -9 -77 -184 -106 -224 -12 -17 -29 -28 -43 -28 -35 0 -39 16 -10
42 14 12 25 27 25 33 0 23 -65 152 -74 148 -3 -2 -15 -3 -26 -3 -18 0 -20 -7
-20 -61 0 -53 3 -62 20 -66 30 -8 21 -37 -12 -41 -46 -5 -68 27 -68 103 0 37
-4 65 -10 65 -5 0 -10 9 -10 20 0 11 5 20 10 20 6 0 10 12 10 26 0 22 4 25 28
22 19 -2 28 -9 30 -25z m-2010 -39 c19 -13 22 -24 22 -75 0 -32 5 -68 12 -79
14 -22 8 -31 -18 -30 -35 1 -64 0 -100 -1 -42 -3 -64 19 -64 62 0 34 21 52 73
58 43 6 51 18 23 36 -10 6 -23 5 -39 -4 -27 -14 -47 -8 -47 14 0 34 97 48 138
19z m120 -66 c3 -82 9 -90 56 -72 22 9 23 114 1 114 -8 0 -15 9 -15 21 0 17 5
20 38 17 l37 -3 3 -80 c2 -57 7 -82 18 -88 26 -15 3 -28 -44 -26 -26 1 -61 -2
-78 -6 -25 -6 -36 -3 -53 14 -17 17 -21 33 -21 86 0 37 -4 65 -10 65 -5 0 -10
9 -10 21 0 17 5 20 38 17 l37 -3 3 -77z m1099 66 c3 -9 1 -19 -6 -23 -6 -4 -9
-14 -7 -22 3 -8 11 -27 17 -44 l11 -30 18 40 c12 27 14 44 8 52 -18 23 -1 43
36 43 42 0 54 -15 32 -39 -9 -10 -16 -21 -16 -25 0 -5 -6 -22 -14 -39 -8 -18
-22 -49 -30 -69 -21 -54 -52 -52 -74 5 -9 23 -28 65 -42 93 -14 29 -24 57 -22
63 6 18 82 14 89 -5z m268 -9 c17 -16 25 -35 25 -60 l0 -35 -65 0 c-68 0 -80
-10 -42 -35 19 -12 29 -13 55 -3 25 10 34 10 44 0 22 -22 -16 -47 -72 -47 -58
0 -96 29 -106 81 -7 39 18 97 49 112 40 19 86 14 112 -13z m185 -1 c0 -16 -8
-23 -30 -27 -29 -6 -30 -8 -30 -61 0 -40 4 -55 16 -60 29 -11 -4 -36 -48 -36
-27 0 -41 5 -45 17 -4 9 -1 19 5 21 15 5 17 132 2 132 -5 0 -10 9 -10 19 0 17
7 19 70 18 65 -1 70 -3 70 -23z m149 8 c5 -10 6 -24 1 -32 -7 -11 -14 -11 -38
-1 -30 13 -52 9 -52 -9 0 -5 12 -12 28 -16 69 -16 96 -69 53 -108 -44 -40
-141 -28 -141 19 0 29 29 35 50 10 16 -19 34 -19 50 0 10 12 9 16 -6 21 -69
21 -84 33 -84 68 0 44 29 66 87 66 31 0 45 -5 52 -18z"/>
<path d="M5382 2681 c-10 -28 -14 -30 -44 -25 -27 4 -30 3 -15 -6 30 -19 19
-27 -49 -33 -79 -6 -112 -27 -43 -27 54 0 82 -15 59 -30 -8 -5 -20 -10 -26
-10 -15 0 -104 -79 -104 -92 0 -5 12 -1 28 10 31 22 122 55 130 47 3 -3 -2
-13 -10 -22 -12 -14 -38 -75 -38 -88 0 -1 20 18 45 42 25 24 50 43 57 43 14 0
3 -329 -12 -344 -15 -15 -12 -22 14 -34 37 -16 61 5 47 41 -16 40 -15 337 1
337 6 0 31 -21 55 -47 l44 -47 -21 54 c-12 30 -24 58 -26 62 -10 15 49 -3 104
-32 28 -16 52 -24 52 -20 0 12 -66 67 -103 86 -17 9 -34 18 -37 21 -10 10 28
23 70 24 l45 1 -30 13 c-16 8 -51 14 -77 15 -50 0 -61 11 -30 30 14 9 11 10
-16 6 -30 -5 -34 -3 -46 25 l-13 31 -11 -31z"/>
<path d="M5160 2100 c52 -16 116 -49 158 -79 l43 -32 -24 -20 c-14 -10 -31
-19 -37 -19 -7 0 -21 -11 -32 -25 -13 -16 -29 -25 -49 -25 -16 0 -29 -4 -29
-10 0 -16 53 -12 78 6 13 9 31 13 43 9 13 -4 19 -3 15 3 -6 10 16 33 51 51 17
9 28 7 52 -7 17 -9 31 -23 31 -29 0 -7 8 -13 18 -13 9 0 30 -7 46 -15 32 -17
76 -20 76 -5 0 6 -12 10 -27 10 -31 1 -63 21 -63 39 0 6 -9 11 -19 11 -10 0
-29 8 -42 19 -20 16 -21 21 -10 35 7 9 17 16 22 16 5 0 28 12 51 26 23 15 64
35 92 45 l51 19 -42 -5 c-51 -6 -160 -51 -190 -78 l-22 -20 -41 26 c-42 29
-176 78 -207 76 -13 0 -11 -3 7 -9z"/>
<path d="M5210 1690 c-25 -11 -62 -19 -82 -19 -21 -1 -38 -4 -38 -9 0 -15 62
-287 66 -291 2 -3 31 0 62 7 77 16 107 15 144 -4 29 -15 34 -15 59 0 33 20 87
20 156 2 29 -8 55 -10 58 -6 4 7 65 281 65 294 0 2 -24 6 -54 9 -30 3 -68 12
-84 21 -47 24 -117 21 -136 -6 -9 -12 -16 -30 -16 -40 0 -26 -23 -12 -40 25
-14 29 -19 32 -65 34 -30 1 -68 -6 -95 -17z m58 -167 c-3 -60 -5 -68 -23 -68
-17 0 -21 8 -23 45 -2 24 -9 48 -15 53 -15 9 18 37 45 37 17 0 19 -7 16 -67z
m100 55 c5 -7 12 -22 15 -33 3 -13 5 -9 6 13 l1 32 95 0 c91 0 95 -1 95 -22 0
-38 -42 -118 -62 -118 -24 0 -23 15 7 67 l26 43 -66 0 c-36 0 -65 -4 -65 -8 0
-4 9 -8 21 -9 46 -4 64 -47 33 -78 -22 -22 -78 -16 -82 8 -3 14 2 17 24 15 15
-2 29 2 31 9 2 7 -8 13 -24 15 -22 2 -32 -4 -48 -27 -16 -24 -28 -30 -55 -30
-24 0 -35 5 -35 15 0 10 8 14 28 12 15 -2 27 1 27 7 0 6 -8 11 -18 11 -24 0
-42 19 -42 45 0 12 5 26 12 33 16 16 63 15 76 0z"/>
<path d="M5315 1550 c-3 -6 1 -13 10 -16 19 -8 30 0 20 15 -8 14 -22 14 -30 1z"/>
<path d="M2956 2617 c-11 -8 -23 -40 -32 -87 -7 -40 -13 -74 -11 -75 38 -30
96 -32 131 -4 22 18 26 28 26 75 0 45 -4 59 -25 79 -27 27 -62 32 -89 12z"/>
<path d="M1138 2610 c-24 -14 -40 -73 -32 -115 9 -48 57 -72 109 -55 29 9 33
16 39 57 9 70 7 90 -10 107 -17 18 -80 21 -106 6z"/>
<path d="M2047 2599 c-21 -3 -46 -14 -55 -23 -16 -17 -14 -21 37 -66 60 -55
59 -55 131 9 40 36 43 42 30 55 -20 21 -95 34 -143 25z"/>
<path d="M3909 2041 c-17 -14 -26 -37 -35 -92 -15 -85 -13 -89 59 -89 63 0 87
23 87 85 0 55 -15 90 -47 104 -32 15 -37 14 -64 -8z"/>
<path d="M1864 2016 c-39 -18 -49 -33 -32 -49 28 -26 96 -77 104 -77 5 0 34
22 64 49 l54 48 -26 17 c-36 24 -125 30 -164 12z"/>
<path d="M1513 2005 c-35 -15 -46 -41 -41 -96 3 -33 4 -34 56 -37 l52 -3 0 69
c0 55 -3 71 -16 76 -9 3 -16 6 -17 6 -1 -1 -16 -7 -34 -15z"/>
<path d="M1674 1395 c-4 -9 -2 -21 4 -27 16 -16 47 -5 47 17 0 26 -42 34 -51
10z"/>
<path d="M1663 1253 c-6 -16 -3 -20 17 -23 34 -5 60 1 60 14 0 19 -70 27 -77
9z"/>
<path d="M2582 1398 c-12 -15 -15 -32 -13 -70 1 -34 32 -53 61 -38 26 14 29
104 4 114 -24 9 -41 7 -52 -6z"/>
<path d="M2145 1320 c-10 -17 14 -38 35 -33 30 8 26 43 -4 43 -14 0 -28 -5
-31 -10z"/>
<path d="M3637 1403 c-17 -16 -4 -30 28 -31 37 -1 43 6 23 26 -13 13 -41 16
-51 5z"/>
</g>
</svg>
